<?xml version="1.0" encoding="UTF-8" standalone="no"?>
<!DOCTYPE svg PUBLIC "-//W3C//DTD SVG 1.1//EN"
 "http://www.w3.org/Graphics/SVG/1.1/DTD/svg11.dtd">
<!-- Generated by graphviz version 2.38.0 (20140413.2041)
 -->
<!-- Title: G Pages: 1 -->
<svg width="1602pt" height="196pt"
 viewBox="0.00 0.00 1602.21 195.98" xmlns="http://www.w3.org/2000/svg" xmlns:xlink="http://www.w3.org/1999/xlink">
<g id="graph0" class="graph" transform="scale(1 1) rotate(0) translate(7.992 187.992)">
<title>G</title>
<polygon fill="#000000" stroke="none" points="-7.992,7.992 -7.992,-187.992 1594.22,-187.992 1594.22,7.992 -7.992,7.992"/>
<!-- src/equal&#45;deep -->
<g id="node1" class="node"><title>src/equal&#45;deep</title>
<ellipse fill="none" stroke="#c6c5fe" cx="146.237" cy="-90" rx="72.5877" ry="18"/>
<text text-anchor="middle" x="146.237" y="-86.3" font-family="Arial" font-size="14.00" fill="#c6c5fe">src/equal&#45;deep</text>
</g>
<!-- node_modules/deep&#45;equal/index -->
<g id="node2" class="node"><title>node_modules/deep&#45;equal/index</title>
<ellipse fill="none" stroke="#cfffac" cx="146.237" cy="-18" rx="146.474" ry="18"/>
<text text-anchor="middle" x="146.237" y="-14.3" font-family="Arial" font-size="14.00" fill="#cfffac">node_modules/deep&#45;equal/index</text>
</g>
<!-- src/equal&#45;deep&#45;&gt;node_modules/deep&#45;equal/index -->
<g id="edge1" class="edge"><title>src/equal&#45;deep&#45;&gt;node_modules/deep&#45;equal/index</title>
<path fill="none" stroke="#757575" d="M146.237,-71.6966C146.237,-63.9827 146.237,-54.7125 146.237,-46.1124"/>
<polygon fill="#757575" stroke="#757575" points="149.737,-46.1043 146.237,-36.1043 142.737,-46.1044 149.737,-46.1043"/>
</g>
<!-- src/equal -->
<g id="node3" class="node"><title>src/equal</title>
<ellipse fill="none" stroke="#cfffac" cx="285.237" cy="-90" rx="48.1917" ry="18"/>
<text text-anchor="middle" x="285.237" y="-86.3" font-family="Arial" font-size="14.00" fill="#cfffac">src/equal</text>
</g>
<!-- src/if&#45;then&#45;else -->
<g id="node4" class="node"><title>src/if&#45;then&#45;else</title>
<ellipse fill="none" stroke="#cfffac" cx="423.237" cy="-90" rx="71.4873" ry="18"/>
<text text-anchor="middle" x="423.237" y="-86.3" font-family="Arial" font-size="14.00" fill="#cfffac">src/if&#45;then&#45;else</text>
</g>
<!-- src/index -->
<g id="node5" class="node"><title>src/index</title>
<ellipse fill="none" stroke="#c6c5fe" cx="915.237" cy="-162" rx="48.1917" ry="18"/>
<text text-anchor="middle" x="915.237" y="-158.3" font-family="Arial" font-size="14.00" fill="#c6c5fe">src/index</text>
</g>
<!-- src/index&#45;&gt;src/equal&#45;deep -->
<g id="edge3" class="edge"><title>src/index&#45;&gt;src/equal&#45;deep</title>
<path fill="none" stroke="#757575" d="M867.535,-159.413C755.48,-155.229 466.9,-141.805 228.237,-108 221.66,-107.068 214.819,-105.928 208.018,-104.683"/>
<polygon fill="#757575" stroke="#757575" points="208.595,-101.23 198.116,-102.796 207.284,-108.106 208.595,-101.23"/>
</g>
<!-- src/index&#45;&gt;src/equal -->
<g id="edge4" class="edge"><title>src/index&#45;&gt;src/equal</title>
<path fill="none" stroke="#757575" d="M867.344,-159.675C768.533,-156.26 535.238,-144.678 343.237,-108 338.887,-107.169 334.395,-106.15 329.926,-105.028"/>
<polygon fill="#757575" stroke="#757575" points="330.809,-101.641 320.244,-102.438 329,-108.403 330.809,-101.641"/>
</g>
<!-- src/index&#45;&gt;src/if&#45;then&#45;else -->
<g id="edge5" class="edge"><title>src/index&#45;&gt;src/if&#45;then&#45;else</title>
<path fill="none" stroke="#757575" d="M869.449,-156.285C793.358,-148.183 636.181,-130.318 504.237,-108 498.008,-106.946 491.529,-105.753 485.07,-104.499"/>
<polygon fill="#757575" stroke="#757575" points="485.466,-101.01 474.975,-102.491 484.1,-107.875 485.466,-101.01"/>
</g>
<!-- node_modules/fun&#45;boolean/src/index -->
<g id="node6" class="node"><title>node_modules/fun&#45;boolean/src/index</title>
<ellipse fill="none" stroke="#cfffac" cx="676.237" cy="-90" rx="163.271" ry="18"/>
<text text-anchor="middle" x="676.237" y="-86.3" font-family="Arial" font-size="14.00" fill="#cfffac">node_modules/fun&#45;boolean/src/index</text>
</g>
<!-- src/index&#45;&gt;node_modules/fun&#45;boolean/src/index -->
<g id="edge2" class="edge"><title>src/index&#45;&gt;node_modules/fun&#45;boolean/src/index</title>
<path fill="none" stroke="#757575" d="M878.678,-150.292C842.086,-139.575 785.019,-122.861 740.79,-109.907"/>
<polygon fill="#757575" stroke="#757575" points="741.57,-106.488 730.989,-107.036 739.602,-113.206 741.57,-106.488"/>
</g>
<!-- src/lib/curry -->
<g id="node7" class="node"><title>src/lib/curry</title>
<ellipse fill="none" stroke="#c6c5fe" cx="915.237" cy="-90" rx="57.6901" ry="18"/>
<text text-anchor="middle" x="915.237" y="-86.3" font-family="Arial" font-size="14.00" fill="#c6c5fe">src/lib/curry</text>
</g>
<!-- src/index&#45;&gt;src/lib/curry -->
<g id="edge6" class="edge"><title>src/index&#45;&gt;src/lib/curry</title>
<path fill="none" stroke="#757575" d="M915.237,-143.697C915.237,-135.983 915.237,-126.712 915.237,-118.112"/>
<polygon fill="#757575" stroke="#757575" points="918.737,-118.104 915.237,-108.104 911.737,-118.104 918.737,-118.104"/>
</g>
<!-- src/match -->
<g id="node8" class="node"><title>src/match</title>
<ellipse fill="none" stroke="#cfffac" cx="1042.24" cy="-90" rx="50.8918" ry="18"/>
<text text-anchor="middle" x="1042.24" y="-86.3" font-family="Arial" font-size="14.00" fill="#cfffac">src/match</text>
</g>
<!-- src/index&#45;&gt;src/match -->
<g id="edge7" class="edge"><title>src/index&#45;&gt;src/match</title>
<path fill="none" stroke="#757575" d="M941.244,-146.666C960.208,-136.213 986.124,-121.929 1006.95,-110.447"/>
<polygon fill="#757575" stroke="#757575" points="1008.76,-113.448 1015.83,-105.556 1005.38,-107.318 1008.76,-113.448"/>
</g>
<!-- src/throws&#45;with -->
<g id="node9" class="node"><title>src/throws&#45;with</title>
<ellipse fill="none" stroke="#cfffac" cx="1182.24" cy="-90" rx="71.4873" ry="18"/>
<text text-anchor="middle" x="1182.24" y="-86.3" font-family="Arial" font-size="14.00" fill="#cfffac">src/throws&#45;with</text>
</g>
<!-- src/index&#45;&gt;src/throws&#45;with -->
<g id="edge8" class="edge"><title>src/index&#45;&gt;src/throws&#45;with</title>
<path fill="none" stroke="#757575" d="M953.492,-150.971C998.33,-139.215 1073.08,-119.618 1124.87,-106.04"/>
<polygon fill="#757575" stroke="#757575" points="1125.8,-109.415 1134.58,-103.494 1124.02,-102.644 1125.8,-109.415"/>
</g>
<!-- src/truthy -->
<g id="node10" class="node"><title>src/truthy</title>
<ellipse fill="none" stroke="#cfffac" cx="1320.24" cy="-90" rx="48.1917" ry="18"/>
<text text-anchor="middle" x="1320.24" y="-86.3" font-family="Arial" font-size="14.00" fill="#cfffac">src/truthy</text>
</g>
<!-- src/index&#45;&gt;src/truthy -->
<g id="edge9" class="edge"><title>src/index&#45;&gt;src/truthy</title>
<path fill="none" stroke="#757575" d="M960.789,-156.01C1027.46,-148.265 1155.3,-131.728 1262.24,-108 1266.33,-107.092 1270.55,-106.054 1274.77,-104.948"/>
<polygon fill="#757575" stroke="#757575" points="1275.82,-108.29 1284.54,-102.274 1273.97,-101.539 1275.82,-108.29"/>
</g>
<!-- src/type -->
<g id="node11" class="node"><title>src/type</title>
<ellipse fill="none" stroke="#c6c5fe" cx="1430.24" cy="-90" rx="43.5923" ry="18"/>
<text text-anchor="middle" x="1430.24" y="-86.3" font-family="Arial" font-size="14.00" fill="#c6c5fe">src/type</text>
</g>
<!-- src/index&#45;&gt;src/type -->
<g id="edge10" class="edge"><title>src/index&#45;&gt;src/type</title>
<path fill="none" stroke="#757575" d="M962.623,-158.636C1046.86,-153.754 1227.88,-140.195 1377.24,-108 1380.9,-107.21 1384.67,-106.27 1388.43,-105.242"/>
<polygon fill="#757575" stroke="#757575" points="1389.66,-108.528 1398.28,-102.363 1387.7,-101.81 1389.66,-108.528"/>
</g>
<!-- node_modules/json&#45;stringify&#45;safe/stringify -->
<g id="node12" class="node"><title>node_modules/json&#45;stringify&#45;safe/stringify</title>
<ellipse fill="none" stroke="#cfffac" cx="915.237" cy="-18" rx="181.968" ry="18"/>
<text text-anchor="middle" x="915.237" y="-14.3" font-family="Arial" font-size="14.00" fill="#cfffac">node_modules/json&#45;stringify&#45;safe/stringify</text>
</g>
<!-- src/lib/curry&#45;&gt;node_modules/json&#45;stringify&#45;safe/stringify -->
<g id="edge11" class="edge"><title>src/lib/curry&#45;&gt;node_modules/json&#45;stringify&#45;safe/stringify</title>
<path fill="none" stroke="#757575" d="M915.237,-71.6966C915.237,-63.9827 915.237,-54.7125 915.237,-46.1124"/>
<polygon fill="#757575" stroke="#757575" points="918.737,-46.1043 915.237,-36.1043 911.737,-46.1044 918.737,-46.1043"/>
</g>
<!-- node_modules/type&#45;check/lib/index -->
<g id="node13" class="node"><title>node_modules/type&#45;check/lib/index</title>
<ellipse fill="none" stroke="#cfffac" cx="1430.24" cy="-18" rx="155.972" ry="18"/>
<text text-anchor="middle" x="1430.24" y="-14.3" font-family="Arial" font-size="14.00" fill="#cfffac">node_modules/type&#45;check/lib/index</text>
</g>
<!-- src/type&#45;&gt;node_modules/type&#45;check/lib/index -->
<g id="edge12" class="edge"><title>src/type&#45;&gt;node_modules/type&#45;check/lib/index</title>
<path fill="none" stroke="#757575" d="M1430.24,-71.6966C1430.24,-63.9827 1430.24,-54.7125 1430.24,-46.1124"/>
<polygon fill="#757575" stroke="#757575" points="1433.74,-46.1043 1430.24,-36.1043 1426.74,-46.1044 1433.74,-46.1043"/>
</g>
</g>
</svg>
