<?xml version="1.0" encoding="UTF-8" standalone="no"?>
<!DOCTYPE svg PUBLIC "-//W3C//DTD SVG 1.1//EN"
 "http://www.w3.org/Graphics/SVG/1.1/DTD/svg11.dtd">
<!-- Generated by graphviz version 2.38.0 (20140413.2041)
 -->
<!-- Title: G Pages: 1 -->
<svg width="1237pt" height="340pt"
 viewBox="0.00 0.00 1237.36 339.98" xmlns="http://www.w3.org/2000/svg" xmlns:xlink="http://www.w3.org/1999/xlink">
<g id="graph0" class="graph" transform="scale(1 1) rotate(0) translate(7.992 331.992)">
<title>G</title>
<polygon fill="#000000" stroke="none" points="-7.992,7.992 -7.992,-331.992 1229.37,-331.992 1229.37,7.992 -7.992,7.992"/>
<!-- src/and -->
<g id="node1" class="node"><title>src/and</title>
<ellipse fill="none" stroke="#c6c5fe" cx="533.137" cy="-234" rx="40.8928" ry="18"/>
<text text-anchor="middle" x="533.137" y="-230.3" font-family="Arial" font-size="14.00" fill="#c6c5fe">src/and</text>
</g>
<!-- node_modules/stringify&#45;anything/src/index -->
<g id="node2" class="node"><title>node_modules/stringify&#45;anything/src/index</title>
<ellipse fill="none" stroke="#cfffac" cx="501.137" cy="-18" rx="182.768" ry="18"/>
<text text-anchor="middle" x="501.137" y="-14.3" font-family="Arial" font-size="14.00" fill="#cfffac">node_modules/stringify&#45;anything/src/index</text>
</g>
<!-- src/and&#45;&gt;node_modules/stringify&#45;anything/src/index -->
<g id="edge1" class="edge"><title>src/and&#45;&gt;node_modules/stringify&#45;anything/src/index</title>
<path fill="none" stroke="#757575" d="M530.572,-215.849C525.037,-178.832 511.93,-91.1809 505.232,-46.3863"/>
<polygon fill="#757575" stroke="#757575" points="508.654,-45.6049 503.713,-36.2325 501.731,-46.6401 508.654,-45.6049"/>
</g>
<!-- src/predicate -->
<g id="node3" class="node"><title>src/predicate</title>
<ellipse fill="none" stroke="#c6c5fe" cx="441.137" cy="-162" rx="64.189" ry="18"/>
<text text-anchor="middle" x="441.137" y="-158.3" font-family="Arial" font-size="14.00" fill="#c6c5fe">src/predicate</text>
</g>
<!-- src/and&#45;&gt;src/predicate -->
<g id="edge2" class="edge"><title>src/and&#45;&gt;src/predicate</title>
<path fill="none" stroke="#757575" d="M513.626,-218.155C501.016,-208.56 484.376,-195.9 470.22,-185.129"/>
<polygon fill="#757575" stroke="#757575" points="472.299,-182.313 462.222,-179.043 468.061,-187.884 472.299,-182.313"/>
</g>
<!-- src/predicate&#45;&gt;node_modules/stringify&#45;anything/src/index -->
<g id="edge21" class="edge"><title>src/predicate&#45;&gt;node_modules/stringify&#45;anything/src/index</title>
<path fill="none" stroke="#757575" d="M448.374,-143.871C458.69,-119.457 477.717,-74.4258 489.882,-45.6351"/>
<polygon fill="#757575" stroke="#757575" points="493.205,-46.763 493.874,-36.1893 486.757,-44.0385 493.205,-46.763"/>
</g>
<!-- src/spec&#45;options&#45;predicate -->
<g id="node14" class="node"><title>src/spec&#45;options&#45;predicate</title>
<ellipse fill="none" stroke="#c6c5fe" cx="200.137" cy="-90" rx="120.779" ry="18"/>
<text text-anchor="middle" x="200.137" y="-86.3" font-family="Arial" font-size="14.00" fill="#c6c5fe">src/spec&#45;options&#45;predicate</text>
</g>
<!-- src/predicate&#45;&gt;src/spec&#45;options&#45;predicate -->
<g id="edge22" class="edge"><title>src/predicate&#45;&gt;src/spec&#45;options&#45;predicate</title>
<path fill="none" stroke="#757575" d="M398.051,-148.485C360.369,-137.54 305.172,-121.508 262.636,-109.153"/>
<polygon fill="#757575" stroke="#757575" points="263.521,-105.766 252.941,-106.337 261.568,-112.488 263.521,-105.766"/>
</g>
<!-- src/equal -->
<g id="node4" class="node"><title>src/equal</title>
<ellipse fill="none" stroke="#c6c5fe" cx="840.137" cy="-234" rx="48.1917" ry="18"/>
<text text-anchor="middle" x="840.137" y="-230.3" font-family="Arial" font-size="14.00" fill="#c6c5fe">src/equal</text>
</g>
<!-- src/equal&#45;&gt;src/predicate -->
<g id="edge5" class="edge"><title>src/equal&#45;&gt;src/predicate</title>
<path fill="none" stroke="#757575" d="M804.759,-221.636C797.645,-219.582 790.188,-217.59 783.137,-216 689.284,-194.836 579.037,-179.412 509.622,-170.828"/>
<polygon fill="#757575" stroke="#757575" points="510.035,-167.352 499.684,-169.611 509.184,-174.3 510.035,-167.352"/>
</g>
<!-- node_modules/deep&#45;equal/index -->
<g id="node5" class="node"><title>node_modules/deep&#45;equal/index</title>
<ellipse fill="none" stroke="#cfffac" cx="1075.14" cy="-162" rx="146.474" ry="18"/>
<text text-anchor="middle" x="1075.14" y="-158.3" font-family="Arial" font-size="14.00" fill="#cfffac">node_modules/deep&#45;equal/index</text>
</g>
<!-- src/equal&#45;&gt;node_modules/deep&#45;equal/index -->
<g id="edge3" class="edge"><title>src/equal&#45;&gt;node_modules/deep&#45;equal/index</title>
<path fill="none" stroke="#757575" d="M876.598,-222.139C912.794,-211.357 968.995,-194.617 1012.38,-181.695"/>
<polygon fill="#757575" stroke="#757575" points="1013.4,-185.042 1021.98,-178.832 1011.4,-178.333 1013.4,-185.042"/>
</g>
<!-- node_modules/type&#45;check/lib/index -->
<g id="node6" class="node"><title>node_modules/type&#45;check/lib/index</title>
<ellipse fill="none" stroke="#cfffac" cx="755.137" cy="-162" rx="155.972" ry="18"/>
<text text-anchor="middle" x="755.137" y="-158.3" font-family="Arial" font-size="14.00" fill="#cfffac">node_modules/type&#45;check/lib/index</text>
</g>
<!-- src/equal&#45;&gt;node_modules/type&#45;check/lib/index -->
<g id="edge4" class="edge"><title>src/equal&#45;&gt;node_modules/type&#45;check/lib/index</title>
<path fill="none" stroke="#757575" d="M820.849,-217.116C809.839,-208.049 795.832,-196.514 783.581,-186.425"/>
<polygon fill="#757575" stroke="#757575" points="785.778,-183.7 775.833,-180.044 781.328,-189.103 785.778,-183.7"/>
</g>
<!-- src/falsey -->
<g id="node7" class="node"><title>src/falsey</title>
<ellipse fill="none" stroke="#c6c5fe" cx="386.137" cy="-234" rx="50.0912" ry="18"/>
<text text-anchor="middle" x="386.137" y="-230.3" font-family="Arial" font-size="14.00" fill="#c6c5fe">src/falsey</text>
</g>
<!-- src/falsey&#45;&gt;src/predicate -->
<g id="edge6" class="edge"><title>src/falsey&#45;&gt;src/predicate</title>
<path fill="none" stroke="#757575" d="M399.171,-216.411C405.854,-207.906 414.13,-197.372 421.562,-187.914"/>
<polygon fill="#757575" stroke="#757575" points="424.388,-189.982 427.814,-179.956 418.884,-185.657 424.388,-189.982"/>
</g>
<!-- src/index -->
<g id="node8" class="node"><title>src/index</title>
<ellipse fill="none" stroke="#c6c5fe" cx="464.137" cy="-306" rx="48.1917" ry="18"/>
<text text-anchor="middle" x="464.137" y="-302.3" font-family="Arial" font-size="14.00" fill="#c6c5fe">src/index</text>
</g>
<!-- src/index&#45;&gt;src/and -->
<g id="edge7" class="edge"><title>src/index&#45;&gt;src/and</title>
<path fill="none" stroke="#757575" d="M480.14,-288.765C489.023,-279.753 500.228,-268.385 510.045,-258.426"/>
<polygon fill="#757575" stroke="#757575" points="512.693,-260.726 517.22,-251.147 507.707,-255.812 512.693,-260.726"/>
</g>
<!-- src/index&#45;&gt;src/predicate -->
<g id="edge13" class="edge"><title>src/index&#45;&gt;src/predicate</title>
<path fill="none" stroke="#757575" d="M461.362,-287.871C457.442,-263.67 450.241,-219.211 445.574,-190.393"/>
<polygon fill="#757575" stroke="#757575" points="448.975,-189.501 443.921,-180.189 442.065,-190.62 448.975,-189.501"/>
</g>
<!-- src/index&#45;&gt;src/equal -->
<g id="edge8" class="edge"><title>src/index&#45;&gt;src/equal</title>
<path fill="none" stroke="#757575" d="M508.864,-299.369C570.888,-291.153 686.322,-274.387 783.137,-252 786.988,-251.109 790.962,-250.105 794.936,-249.041"/>
<polygon fill="#757575" stroke="#757575" points="796.054,-252.363 804.745,-246.303 794.172,-245.62 796.054,-252.363"/>
</g>
<!-- src/index&#45;&gt;src/falsey -->
<g id="edge9" class="edge"><title>src/index&#45;&gt;src/falsey</title>
<path fill="none" stroke="#757575" d="M446.437,-289.116C436.139,-279.874 422.981,-268.066 411.586,-257.84"/>
<polygon fill="#757575" stroke="#757575" points="413.816,-255.138 404.036,-251.064 409.141,-260.348 413.816,-255.138"/>
</g>
<!-- src/match -->
<g id="node9" class="node"><title>src/match</title>
<ellipse fill="none" stroke="#c6c5fe" cx="153.137" cy="-234" rx="50.8918" ry="18"/>
<text text-anchor="middle" x="153.137" y="-230.3" font-family="Arial" font-size="14.00" fill="#c6c5fe">src/match</text>
</g>
<!-- src/index&#45;&gt;src/match -->
<g id="edge10" class="edge"><title>src/index&#45;&gt;src/match</title>
<path fill="none" stroke="#757575" d="M422.192,-297.049C372.191,-287.363 286.21,-270.045 213.137,-252 209.057,-250.993 204.835,-249.9 200.608,-248.771"/>
<polygon fill="#757575" stroke="#757575" points="201.369,-245.351 190.8,-246.094 199.526,-252.104 201.369,-245.351"/>
</g>
<!-- src/not -->
<g id="node10" class="node"><title>src/not</title>
<ellipse fill="none" stroke="#c6c5fe" cx="630.137" cy="-234" rx="38.1938" ry="18"/>
<text text-anchor="middle" x="630.137" y="-230.3" font-family="Arial" font-size="14.00" fill="#c6c5fe">src/not</text>
</g>
<!-- src/index&#45;&gt;src/not -->
<g id="edge11" class="edge"><title>src/index&#45;&gt;src/not</title>
<path fill="none" stroke="#757575" d="M494.971,-291.998C522.686,-280.311 563.45,-263.121 592.959,-250.677"/>
<polygon fill="#757575" stroke="#757575" points="594.646,-253.765 602.5,-246.654 591.926,-247.315 594.646,-253.765"/>
</g>
<!-- src/or -->
<g id="node11" class="node"><title>src/or</title>
<ellipse fill="none" stroke="#c6c5fe" cx="50.1367" cy="-234" rx="34.394" ry="18"/>
<text text-anchor="middle" x="50.1367" y="-230.3" font-family="Arial" font-size="14.00" fill="#c6c5fe">src/or</text>
</g>
<!-- src/index&#45;&gt;src/or -->
<g id="edge12" class="edge"><title>src/index&#45;&gt;src/or</title>
<path fill="none" stroke="#757575" d="M417.165,-301.837C346.06,-296.257 207.283,-282.267 93.1367,-252 90.5349,-251.31 87.8769,-250.509 85.2222,-249.638"/>
<polygon fill="#757575" stroke="#757575" points="86.3232,-246.315 75.7285,-246.251 83.9708,-252.908 86.3232,-246.315"/>
</g>
<!-- src/truthy -->
<g id="node12" class="node"><title>src/truthy</title>
<ellipse fill="none" stroke="#c6c5fe" cx="270.137" cy="-234" rx="48.1917" ry="18"/>
<text text-anchor="middle" x="270.137" y="-230.3" font-family="Arial" font-size="14.00" fill="#c6c5fe">src/truthy</text>
</g>
<!-- src/index&#45;&gt;src/truthy -->
<g id="edge14" class="edge"><title>src/index&#45;&gt;src/truthy</title>
<path fill="none" stroke="#757575" d="M430.787,-292.967C398.307,-281.247 348.78,-263.376 313.307,-250.577"/>
<polygon fill="#757575" stroke="#757575" points="314.295,-247.213 303.701,-247.111 311.919,-253.797 314.295,-247.213"/>
</g>
<!-- src/type -->
<g id="node13" class="node"><title>src/type</title>
<ellipse fill="none" stroke="#c6c5fe" cx="730.137" cy="-234" rx="43.5923" ry="18"/>
<text text-anchor="middle" x="730.137" y="-230.3" font-family="Arial" font-size="14.00" fill="#c6c5fe">src/type</text>
</g>
<!-- src/index&#45;&gt;src/type -->
<g id="edge15" class="edge"><title>src/index&#45;&gt;src/type</title>
<path fill="none" stroke="#757575" d="M503.995,-295.918C546.947,-285.937 617.209,-269.046 677.137,-252 680.491,-251.046 683.954,-250.023 687.427,-248.969"/>
<polygon fill="#757575" stroke="#757575" points="688.646,-252.255 697.161,-245.951 686.573,-245.569 688.646,-252.255"/>
</g>
<!-- src/match&#45;&gt;src/predicate -->
<g id="edge16" class="edge"><title>src/match&#45;&gt;src/predicate</title>
<path fill="none" stroke="#757575" d="M191.151,-221.934C198.432,-219.898 206.008,-217.837 213.137,-216 270.33,-201.259 336.069,-186.173 382.218,-175.885"/>
<polygon fill="#757575" stroke="#757575" points="383.046,-179.287 392.048,-173.7 381.527,-172.454 383.046,-179.287"/>
</g>
<!-- src/not&#45;&gt;node_modules/stringify&#45;anything/src/index -->
<g id="edge17" class="edge"><title>src/not&#45;&gt;node_modules/stringify&#45;anything/src/index</title>
<path fill="none" stroke="#757575" d="M616.905,-216.726C608.798,-206.456 598.422,-192.764 590.137,-180 560.51,-134.358 530.898,-78.157 514.403,-45.6674"/>
<polygon fill="#757575" stroke="#757575" points="517.349,-43.7355 509.72,-36.3837 511.099,-46.8884 517.349,-43.7355"/>
</g>
<!-- src/not&#45;&gt;src/predicate -->
<g id="edge18" class="edge"><title>src/not&#45;&gt;src/predicate</title>
<path fill="none" stroke="#757575" d="M601.02,-222.216C570.921,-211.068 523.467,-193.493 488.064,-180.38"/>
<polygon fill="#757575" stroke="#757575" points="489.015,-177.001 478.422,-176.81 486.584,-183.565 489.015,-177.001"/>
</g>
<!-- src/or&#45;&gt;node_modules/stringify&#45;anything/src/index -->
<g id="edge19" class="edge"><title>src/or&#45;&gt;node_modules/stringify&#45;anything/src/index</title>
<path fill="none" stroke="#757575" d="M76.2397,-221.968C126.035,-200.787 237.856,-152.564 330.137,-108 375.646,-86.0229 426.965,-59.006 461.405,-40.5417"/>
<polygon fill="#757575" stroke="#757575" points="463.065,-43.6229 470.217,-35.8063 459.751,-37.4568 463.065,-43.6229"/>
</g>
<!-- src/or&#45;&gt;src/predicate -->
<g id="edge20" class="edge"><title>src/or&#45;&gt;src/predicate</title>
<path fill="none" stroke="#757575" d="M75.7178,-221.708C81.3694,-219.547 87.3877,-217.496 93.1367,-216 210.299,-185.519 243.894,-200.908 363.137,-180 369.649,-178.858 376.442,-177.552 383.186,-176.181"/>
<polygon fill="#757575" stroke="#757575" points="383.916,-179.605 392.993,-174.14 382.49,-172.751 383.916,-179.605"/>
</g>
<!-- src/truthy&#45;&gt;src/predicate -->
<g id="edge25" class="edge"><title>src/truthy&#45;&gt;src/predicate</title>
<path fill="none" stroke="#757575" d="M301.501,-220.161C328.298,-209.191 367.146,-193.288 397.068,-181.04"/>
<polygon fill="#757575" stroke="#757575" points="398.514,-184.23 406.442,-177.202 395.862,-177.752 398.514,-184.23"/>
</g>
<!-- src/type&#45;&gt;src/predicate -->
<g id="edge27" class="edge"><title>src/type&#45;&gt;src/predicate</title>
<path fill="none" stroke="#757575" d="M697.477,-222.02C690.782,-219.911 683.757,-217.801 677.137,-216 618.124,-199.944 549.873,-185.003 501.996,-175.105"/>
<polygon fill="#757575" stroke="#757575" points="502.6,-171.656 492.1,-173.071 501.19,-178.512 502.6,-171.656"/>
</g>
<!-- src/type&#45;&gt;node_modules/type&#45;check/lib/index -->
<g id="edge26" class="edge"><title>src/type&#45;&gt;node_modules/type&#45;check/lib/index</title>
<path fill="none" stroke="#757575" d="M736.188,-216.055C739.002,-208.176 742.416,-198.617 745.567,-189.794"/>
<polygon fill="#757575" stroke="#757575" points="748.9,-190.87 748.967,-180.275 742.307,-188.516 748.9,-190.87"/>
</g>
<!-- src/spec&#45;options&#45;predicate&#45;&gt;node_modules/stringify&#45;anything/src/index -->
<g id="edge24" class="edge"><title>src/spec&#45;options&#45;predicate&#45;&gt;node_modules/stringify&#45;anything/src/index</title>
<path fill="none" stroke="#757575" d="M262.504,-74.496C309.239,-63.6273 373.482,-48.6872 423.538,-37.0463"/>
<polygon fill="#757575" stroke="#757575" points="424.403,-40.4385 433.35,-34.7642 422.818,-33.6204 424.403,-40.4385"/>
</g>
<!-- node_modules/specifier/src/index -->
<g id="node15" class="node"><title>node_modules/specifier/src/index</title>
<ellipse fill="none" stroke="#cfffac" cx="150.137" cy="-18" rx="150.273" ry="18"/>
<text text-anchor="middle" x="150.137" y="-14.3" font-family="Arial" font-size="14.00" fill="#cfffac">node_modules/specifier/src/index</text>
</g>
<!-- src/spec&#45;options&#45;predicate&#45;&gt;node_modules/specifier/src/index -->
<g id="edge23" class="edge"><title>src/spec&#45;options&#45;predicate&#45;&gt;node_modules/specifier/src/index</title>
<path fill="none" stroke="#757575" d="M188.033,-72.055C182.163,-63.8373 174.987,-53.7911 168.465,-44.6599"/>
<polygon fill="#757575" stroke="#757575" points="171.137,-42.3783 162.476,-36.2753 165.441,-46.447 171.137,-42.3783"/>
</g>
</g>
</svg>
