<?xml version="1.0" encoding="UTF-8" standalone="no"?>
<!DOCTYPE svg PUBLIC "-//W3C//DTD SVG 1.1//EN"
 "http://www.w3.org/Graphics/SVG/1.1/DTD/svg11.dtd">
<!-- Generated by graphviz version 2.38.0 (20140413.2041)
 -->
<!-- Title: G Pages: 1 -->
<svg width="1134pt" height="268pt"
 viewBox="0.00 0.00 1134.32 267.98" xmlns="http://www.w3.org/2000/svg" xmlns:xlink="http://www.w3.org/1999/xlink">
<g id="graph0" class="graph" transform="scale(1 1) rotate(0) translate(7.992 259.992)">
<title>G</title>
<polygon fill="#000000" stroke="none" points="-7.992,7.992 -7.992,-259.992 1126.32,-259.992 1126.32,7.992 -7.992,7.992"/>
<!-- src/equal -->
<g id="node1" class="node"><title>src/equal</title>
<ellipse fill="none" stroke="#c6c5fe" cx="371.237" cy="-162" rx="48.1917" ry="18"/>
<text text-anchor="middle" x="371.237" y="-158.3" font-family="Arial" font-size="14.00" fill="#c6c5fe">src/equal</text>
</g>
<!-- node_modules/deep&#45;equal/index -->
<g id="node2" class="node"><title>node_modules/deep&#45;equal/index</title>
<ellipse fill="none" stroke="#cfffac" cx="146.237" cy="-90" rx="146.474" ry="18"/>
<text text-anchor="middle" x="146.237" y="-86.3" font-family="Arial" font-size="14.00" fill="#cfffac">node_modules/deep&#45;equal/index</text>
</g>
<!-- src/equal&#45;&gt;node_modules/deep&#45;equal/index -->
<g id="edge1" class="edge"><title>src/equal&#45;&gt;node_modules/deep&#45;equal/index</title>
<path fill="none" stroke="#757575" d="M335.585,-149.908C301.17,-139.201 248.376,-122.776 207.269,-109.988"/>
<polygon fill="#757575" stroke="#757575" points="208.211,-106.615 197.623,-106.987 206.132,-113.299 208.211,-106.615"/>
</g>
<!-- node_modules/stringify&#45;anything/src/index -->
<g id="node3" class="node"><title>node_modules/stringify&#45;anything/src/index</title>
<ellipse fill="none" stroke="#cfffac" cx="531.237" cy="-18" rx="182.768" ry="18"/>
<text text-anchor="middle" x="531.237" y="-14.3" font-family="Arial" font-size="14.00" fill="#cfffac">node_modules/stringify&#45;anything/src/index</text>
</g>
<!-- src/equal&#45;&gt;node_modules/stringify&#45;anything/src/index -->
<g id="edge2" class="edge"><title>src/equal&#45;&gt;node_modules/stringify&#45;anything/src/index</title>
<path fill="none" stroke="#757575" d="M356.837,-144.799C341.757,-125.793 322.427,-94.0786 339.237,-72 351.042,-56.4953 389.667,-44.3698 429.21,-35.6534"/>
<polygon fill="#757575" stroke="#757575" points="429.945,-39.0754 438.995,-33.5669 428.485,-32.2293 429.945,-39.0754"/>
</g>
<!-- node_modules/type&#45;check/lib/index -->
<g id="node4" class="node"><title>node_modules/type&#45;check/lib/index</title>
<ellipse fill="none" stroke="#cfffac" cx="504.237" cy="-90" rx="155.972" ry="18"/>
<text text-anchor="middle" x="504.237" y="-86.3" font-family="Arial" font-size="14.00" fill="#cfffac">node_modules/type&#45;check/lib/index</text>
</g>
<!-- src/equal&#45;&gt;node_modules/type&#45;check/lib/index -->
<g id="edge3" class="edge"><title>src/equal&#45;&gt;node_modules/type&#45;check/lib/index</title>
<path fill="none" stroke="#757575" d="M398.152,-146.834C416.797,-137.021 441.971,-123.771 463.117,-112.642"/>
<polygon fill="#757575" stroke="#757575" points="464.987,-115.613 472.206,-107.859 461.726,-109.419 464.987,-115.613"/>
</g>
<!-- src/predicate -->
<g id="node5" class="node"><title>src/predicate</title>
<ellipse fill="none" stroke="#c6c5fe" cx="742.237" cy="-90" rx="64.189" ry="18"/>
<text text-anchor="middle" x="742.237" y="-86.3" font-family="Arial" font-size="14.00" fill="#c6c5fe">src/predicate</text>
</g>
<!-- src/equal&#45;&gt;src/predicate -->
<g id="edge4" class="edge"><title>src/equal&#45;&gt;src/predicate</title>
<path fill="none" stroke="#757575" d="M406.608,-149.606C413.722,-147.554 421.181,-145.571 428.237,-144 533.948,-120.465 562.857,-128.298 669.237,-108 674.59,-106.979 680.144,-105.837 685.692,-104.641"/>
<polygon fill="#757575" stroke="#757575" points="686.616,-108.021 695.624,-102.444 685.104,-101.186 686.616,-108.021"/>
</g>
<!-- src/predicate&#45;&gt;node_modules/stringify&#45;anything/src/index -->
<g id="edge17" class="edge"><title>src/predicate&#45;&gt;node_modules/stringify&#45;anything/src/index</title>
<path fill="none" stroke="#757575" d="M702.053,-75.6688C670.467,-65.19 626.003,-50.439 590.358,-38.6136"/>
<polygon fill="#757575" stroke="#757575" points="591.15,-35.1887 580.556,-35.3618 588.945,-41.8326 591.15,-35.1887"/>
</g>
<!-- src/fail -->
<g id="node6" class="node"><title>src/fail</title>
<ellipse fill="none" stroke="#c6c5fe" cx="580.237" cy="-162" rx="37.8943" ry="18"/>
<text text-anchor="middle" x="580.237" y="-158.3" font-family="Arial" font-size="14.00" fill="#c6c5fe">src/fail</text>
</g>
<!-- src/fail&#45;&gt;src/predicate -->
<g id="edge5" class="edge"><title>src/fail&#45;&gt;src/predicate</title>
<path fill="none" stroke="#757575" d="M607.352,-149.284C632.439,-138.444 670.146,-122.15 699.32,-109.544"/>
<polygon fill="#757575" stroke="#757575" points="701.065,-112.603 708.856,-105.424 698.288,-106.178 701.065,-112.603"/>
</g>
<!-- src/falsey -->
<g id="node7" class="node"><title>src/falsey</title>
<ellipse fill="none" stroke="#c6c5fe" cx="686.237" cy="-162" rx="50.0912" ry="18"/>
<text text-anchor="middle" x="686.237" y="-158.3" font-family="Arial" font-size="14.00" fill="#c6c5fe">src/falsey</text>
</g>
<!-- src/falsey&#45;&gt;src/predicate -->
<g id="edge6" class="edge"><title>src/falsey&#45;&gt;src/predicate</title>
<path fill="none" stroke="#757575" d="M699.508,-144.411C706.313,-135.906 714.739,-125.372 722.306,-115.914"/>
<polygon fill="#757575" stroke="#757575" points="725.158,-117.951 728.672,-107.956 719.692,-113.578 725.158,-117.951"/>
</g>
<!-- src/index -->
<g id="node8" class="node"><title>src/index</title>
<ellipse fill="none" stroke="#c6c5fe" cx="725.237" cy="-234" rx="48.1917" ry="18"/>
<text text-anchor="middle" x="725.237" y="-230.3" font-family="Arial" font-size="14.00" fill="#c6c5fe">src/index</text>
</g>
<!-- src/index&#45;&gt;src/equal -->
<g id="edge7" class="edge"><title>src/index&#45;&gt;src/equal</title>
<path fill="none" stroke="#757575" d="M681.136,-226.728C622.853,-218.075 517.161,-201.123 428.237,-180 424.391,-179.086 420.42,-178.066 416.449,-176.991"/>
<polygon fill="#757575" stroke="#757575" points="417.218,-173.572 406.644,-174.236 415.325,-180.311 417.218,-173.572"/>
</g>
<!-- src/index&#45;&gt;src/predicate -->
<g id="edge12" class="edge"><title>src/index&#45;&gt;src/predicate</title>
<path fill="none" stroke="#757575" d="M733.543,-215.788C737.978,-205.634 742.978,-192.384 745.237,-180 748.959,-159.596 747.956,-136.135 746.158,-118.426"/>
<polygon fill="#757575" stroke="#757575" points="749.603,-117.749 744.971,-108.221 742.65,-118.558 749.603,-117.749"/>
</g>
<!-- src/index&#45;&gt;src/fail -->
<g id="edge8" class="edge"><title>src/index&#45;&gt;src/fail</title>
<path fill="none" stroke="#757575" d="M696.935,-219.337C673.549,-208.047 640.242,-191.968 615.193,-179.875"/>
<polygon fill="#757575" stroke="#757575" points="616.562,-176.65 606.035,-175.454 613.519,-182.954 616.562,-176.65"/>
</g>
<!-- src/index&#45;&gt;src/falsey -->
<g id="edge9" class="edge"><title>src/index&#45;&gt;src/falsey</title>
<path fill="none" stroke="#757575" d="M715.796,-216.055C711.197,-207.801 705.571,-197.701 700.465,-188.538"/>
<polygon fill="#757575" stroke="#757575" points="703.515,-186.821 695.591,-179.789 697.4,-190.228 703.515,-186.821"/>
</g>
<!-- src/match -->
<g id="node9" class="node"><title>src/match</title>
<ellipse fill="none" stroke="#c6c5fe" cx="843.237" cy="-162" rx="50.8918" ry="18"/>
<text text-anchor="middle" x="843.237" y="-158.3" font-family="Arial" font-size="14.00" fill="#c6c5fe">src/match</text>
</g>
<!-- src/index&#45;&gt;src/match -->
<g id="edge10" class="edge"><title>src/index&#45;&gt;src/match</title>
<path fill="none" stroke="#757575" d="M749.687,-218.496C767.053,-208.194 790.586,-194.234 809.704,-182.893"/>
<polygon fill="#757575" stroke="#757575" points="811.598,-185.839 818.413,-177.726 808.026,-179.818 811.598,-185.839"/>
</g>
<!-- src/pass -->
<g id="node10" class="node"><title>src/pass</title>
<ellipse fill="none" stroke="#c6c5fe" cx="958.237" cy="-162" rx="46.2923" ry="18"/>
<text text-anchor="middle" x="958.237" y="-158.3" font-family="Arial" font-size="14.00" fill="#c6c5fe">src/pass</text>
</g>
<!-- src/index&#45;&gt;src/pass -->
<g id="edge11" class="edge"><title>src/index&#45;&gt;src/pass</title>
<path fill="none" stroke="#757575" d="M761.747,-222.249C797.752,-211.619 854.332,-194.838 903.237,-180 906.59,-178.983 910.057,-177.925 913.543,-176.857"/>
<polygon fill="#757575" stroke="#757575" points="914.809,-180.13 923.339,-173.846 912.752,-173.439 914.809,-180.13"/>
</g>
<!-- src/truthy -->
<g id="node11" class="node"><title>src/truthy</title>
<ellipse fill="none" stroke="#c6c5fe" cx="1070.24" cy="-162" rx="48.1917" ry="18"/>
<text text-anchor="middle" x="1070.24" y="-158.3" font-family="Arial" font-size="14.00" fill="#c6c5fe">src/truthy</text>
</g>
<!-- src/index&#45;&gt;src/truthy -->
<g id="edge13" class="edge"><title>src/index&#45;&gt;src/truthy</title>
<path fill="none" stroke="#757575" d="M768.969,-226.458C825.675,-217.633 927.474,-200.617 1013.24,-180 1017.08,-179.076 1021.05,-178.048 1025.02,-176.968"/>
<polygon fill="#757575" stroke="#757575" points="1026.15,-180.287 1034.82,-174.206 1024.25,-173.55 1026.15,-180.287"/>
</g>
<!-- src/type -->
<g id="node12" class="node"><title>src/type</title>
<ellipse fill="none" stroke="#c6c5fe" cx="481.237" cy="-162" rx="43.5923" ry="18"/>
<text text-anchor="middle" x="481.237" y="-158.3" font-family="Arial" font-size="14.00" fill="#c6c5fe">src/type</text>
</g>
<!-- src/index&#45;&gt;src/type -->
<g id="edge14" class="edge"><title>src/index&#45;&gt;src/type</title>
<path fill="none" stroke="#757575" d="M686.836,-222.964C647.969,-212.674 586.213,-195.962 533.237,-180 530.1,-179.055 526.863,-178.055 523.612,-177.034"/>
<polygon fill="#757575" stroke="#757575" points="524.487,-173.639 513.896,-173.934 522.359,-180.308 524.487,-173.639"/>
</g>
<!-- src/match&#45;&gt;src/predicate -->
<g id="edge15" class="edge"><title>src/match&#45;&gt;src/predicate</title>
<path fill="none" stroke="#757575" d="M820.822,-145.465C807.025,-135.902 789.127,-123.498 773.897,-112.943"/>
<polygon fill="#757575" stroke="#757575" points="775.503,-109.797 765.29,-106.977 771.515,-115.55 775.503,-109.797"/>
</g>
<!-- src/pass&#45;&gt;src/predicate -->
<g id="edge16" class="edge"><title>src/pass&#45;&gt;src/predicate</title>
<path fill="none" stroke="#757575" d="M924.011,-149.908C888.515,-138.405 832.652,-120.301 792.218,-107.198"/>
<polygon fill="#757575" stroke="#757575" points="793.143,-103.818 782.551,-104.065 790.985,-110.477 793.143,-103.818"/>
</g>
<!-- src/truthy&#45;&gt;src/predicate -->
<g id="edge18" class="edge"><title>src/truthy&#45;&gt;src/predicate</title>
<path fill="none" stroke="#757575" d="M1034.5,-149.767C1027.49,-147.724 1020.16,-145.704 1013.24,-144 942.904,-126.677 861.19,-111.34 806.03,-101.679"/>
<polygon fill="#757575" stroke="#757575" points="806.5,-98.2082 796.048,-99.9418 805.3,-105.105 806.5,-98.2082"/>
</g>
<!-- src/type&#45;&gt;node_modules/type&#45;check/lib/index -->
<g id="edge19" class="edge"><title>src/type&#45;&gt;node_modules/type&#45;check/lib/index</title>
<path fill="none" stroke="#757575" d="M486.805,-144.055C489.393,-136.176 492.534,-126.617 495.433,-117.794"/>
<polygon fill="#757575" stroke="#757575" points="498.764,-118.868 498.561,-108.275 492.114,-116.683 498.764,-118.868"/>
</g>
<!-- src/type&#45;&gt;src/predicate -->
<g id="edge20" class="edge"><title>src/type&#45;&gt;src/predicate</title>
<path fill="none" stroke="#757575" d="M513.865,-149.96C520.264,-147.901 526.943,-145.825 533.237,-144 583.996,-129.285 642.334,-114.681 684.454,-104.541"/>
<polygon fill="#757575" stroke="#757575" points="685.351,-107.925 694.26,-102.19 683.719,-101.118 685.351,-107.925"/>
</g>
</g>
</svg>
