<?xml version="1.0" encoding="UTF-8" standalone="no"?>
<!DOCTYPE svg PUBLIC "-//W3C//DTD SVG 1.1//EN"
 "http://www.w3.org/Graphics/SVG/1.1/DTD/svg11.dtd">
<!-- Generated by graphviz version 2.38.0 (20140413.2041)
 -->
<!-- Title: G Pages: 1 -->
<svg width="1425pt" height="196pt"
 viewBox="0.00 0.00 1425.21 195.98" xmlns="http://www.w3.org/2000/svg" xmlns:xlink="http://www.w3.org/1999/xlink">
<g id="graph0" class="graph" transform="scale(1 1) rotate(0) translate(7.992 187.992)">
<title>G</title>
<polygon fill="#000000" stroke="none" points="-7.992,7.992 -7.992,-187.992 1417.22,-187.992 1417.22,7.992 -7.992,7.992"/>
<!-- src/equal&#45;deep -->
<g id="node1" class="node"><title>src/equal&#45;deep</title>
<ellipse fill="none" stroke="#c6c5fe" cx="146.237" cy="-90" rx="72.5877" ry="18"/>
<text text-anchor="middle" x="146.237" y="-86.3" font-family="Arial" font-size="14.00" fill="#c6c5fe">src/equal&#45;deep</text>
</g>
<!-- node_modules/deep&#45;equal/index -->
<g id="node2" class="node"><title>node_modules/deep&#45;equal/index</title>
<ellipse fill="none" stroke="#cfffac" cx="146.237" cy="-18" rx="146.474" ry="18"/>
<text text-anchor="middle" x="146.237" y="-14.3" font-family="Arial" font-size="14.00" fill="#cfffac">node_modules/deep&#45;equal/index</text>
</g>
<!-- src/equal&#45;deep&#45;&gt;node_modules/deep&#45;equal/index -->
<g id="edge1" class="edge"><title>src/equal&#45;deep&#45;&gt;node_modules/deep&#45;equal/index</title>
<path fill="none" stroke="#757575" d="M146.237,-71.6966C146.237,-63.9827 146.237,-54.7125 146.237,-46.1124"/>
<polygon fill="#757575" stroke="#757575" points="149.737,-46.1043 146.237,-36.1043 142.737,-46.1044 149.737,-46.1043"/>
</g>
<!-- src/equal -->
<g id="node3" class="node"><title>src/equal</title>
<ellipse fill="none" stroke="#cfffac" cx="285.237" cy="-90" rx="48.1917" ry="18"/>
<text text-anchor="middle" x="285.237" y="-86.3" font-family="Arial" font-size="14.00" fill="#cfffac">src/equal</text>
</g>
<!-- src/falsey -->
<g id="node4" class="node"><title>src/falsey</title>
<ellipse fill="none" stroke="#cfffac" cx="401.237" cy="-90" rx="50.0912" ry="18"/>
<text text-anchor="middle" x="401.237" y="-86.3" font-family="Arial" font-size="14.00" fill="#cfffac">src/falsey</text>
</g>
<!-- src/if&#45;then&#45;else -->
<g id="node5" class="node"><title>src/if&#45;then&#45;else</title>
<ellipse fill="none" stroke="#cfffac" cx="541.237" cy="-90" rx="71.4873" ry="18"/>
<text text-anchor="middle" x="541.237" y="-86.3" font-family="Arial" font-size="14.00" fill="#cfffac">src/if&#45;then&#45;else</text>
</g>
<!-- src/index -->
<g id="node6" class="node"><title>src/index</title>
<ellipse fill="none" stroke="#c6c5fe" cx="667.237" cy="-162" rx="48.1917" ry="18"/>
<text text-anchor="middle" x="667.237" y="-158.3" font-family="Arial" font-size="14.00" fill="#c6c5fe">src/index</text>
</g>
<!-- src/index&#45;&gt;src/equal&#45;deep -->
<g id="edge3" class="edge"><title>src/index&#45;&gt;src/equal&#45;deep</title>
<path fill="none" stroke="#757575" d="M621.237,-156.735C541.11,-149.018 370.855,-131.35 228.237,-108 221.928,-106.967 215.368,-105.788 208.828,-104.542"/>
<polygon fill="#757575" stroke="#757575" points="209.094,-101.028 198.608,-102.543 207.75,-107.898 209.094,-101.028"/>
</g>
<!-- src/index&#45;&gt;src/equal -->
<g id="edge4" class="edge"><title>src/index&#45;&gt;src/equal</title>
<path fill="none" stroke="#757575" d="M622.199,-155.513C559.133,-147.41 441.137,-130.714 342.237,-108 338.384,-107.115 334.409,-106.115 330.434,-105.053"/>
<polygon fill="#757575" stroke="#757575" points="331.198,-101.633 320.625,-102.319 329.318,-108.376 331.198,-101.633"/>
</g>
<!-- src/index&#45;&gt;src/falsey -->
<g id="edge5" class="edge"><title>src/index&#45;&gt;src/falsey</title>
<path fill="none" stroke="#757575" d="M628.437,-151.316C586.971,-140.897 519.346,-123.705 461.237,-108 457.18,-106.904 452.975,-105.749 448.758,-104.579"/>
<polygon fill="#757575" stroke="#757575" points="449.539,-101.163 438.966,-101.841 447.654,-107.904 449.539,-101.163"/>
</g>
<!-- src/index&#45;&gt;src/if&#45;then&#45;else -->
<g id="edge6" class="edge"><title>src/index&#45;&gt;src/if&#45;then&#45;else</title>
<path fill="none" stroke="#757575" d="M641.435,-146.666C623.329,-136.606 598.836,-122.999 578.598,-111.756"/>
<polygon fill="#757575" stroke="#757575" points="580.079,-108.575 569.638,-106.778 576.68,-114.694 580.079,-108.575"/>
</g>
<!-- node_modules/fun&#45;boolean/src/index -->
<g id="node7" class="node"><title>node_modules/fun&#45;boolean/src/index</title>
<ellipse fill="none" stroke="#cfffac" cx="794.237" cy="-90" rx="163.271" ry="18"/>
<text text-anchor="middle" x="794.237" y="-86.3" font-family="Arial" font-size="14.00" fill="#cfffac">node_modules/fun&#45;boolean/src/index</text>
</g>
<!-- src/index&#45;&gt;node_modules/fun&#45;boolean/src/index -->
<g id="edge2" class="edge"><title>src/index&#45;&gt;node_modules/fun&#45;boolean/src/index</title>
<path fill="none" stroke="#757575" d="M693.244,-146.666C710.99,-136.884 734.824,-123.747 754.881,-112.692"/>
<polygon fill="#757575" stroke="#757575" points="756.728,-115.671 763.796,-107.779 753.349,-109.541 756.728,-115.671"/>
</g>
<!-- src/match -->
<g id="node8" class="node"><title>src/match</title>
<ellipse fill="none" stroke="#cfffac" cx="1026.24" cy="-90" rx="50.8918" ry="18"/>
<text text-anchor="middle" x="1026.24" y="-86.3" font-family="Arial" font-size="14.00" fill="#cfffac">src/match</text>
</g>
<!-- src/index&#45;&gt;src/match -->
<g id="edge7" class="edge"><title>src/index&#45;&gt;src/match</title>
<path fill="none" stroke="#757575" d="M711.341,-154.605C769.919,-145.787 876.449,-128.623 966.237,-108 970.392,-107.046 974.688,-105.983 978.984,-104.867"/>
<polygon fill="#757575" stroke="#757575" points="980.189,-108.168 988.94,-102.195 978.374,-101.407 980.189,-108.168"/>
</g>
<!-- src/truthy -->
<g id="node9" class="node"><title>src/truthy</title>
<ellipse fill="none" stroke="#cfffac" cx="1143.24" cy="-90" rx="48.1917" ry="18"/>
<text text-anchor="middle" x="1143.24" y="-86.3" font-family="Arial" font-size="14.00" fill="#cfffac">src/truthy</text>
</g>
<!-- src/index&#45;&gt;src/truthy -->
<g id="edge8" class="edge"><title>src/index&#45;&gt;src/truthy</title>
<path fill="none" stroke="#757575" d="M714.156,-157.591C792.072,-151.368 952.792,-136.141 1086.24,-108 1090.16,-107.173 1094.2,-106.205 1098.24,-105.159"/>
<polygon fill="#757575" stroke="#757575" points="1099.48,-108.45 1108.2,-102.432 1097.63,-101.699 1099.48,-108.45"/>
</g>
<!-- src/type -->
<g id="node10" class="node"><title>src/type</title>
<ellipse fill="none" stroke="#c6c5fe" cx="1253.24" cy="-90" rx="43.5923" ry="18"/>
<text text-anchor="middle" x="1253.24" y="-86.3" font-family="Arial" font-size="14.00" fill="#c6c5fe">src/type</text>
</g>
<!-- src/index&#45;&gt;src/type -->
<g id="edge9" class="edge"><title>src/index&#45;&gt;src/type</title>
<path fill="none" stroke="#757575" d="M715.165,-159.621C809.143,-156.174 1023.83,-144.633 1200.24,-108 1203.91,-107.238 1207.68,-106.317 1211.44,-105.302"/>
<polygon fill="#757575" stroke="#757575" points="1212.67,-108.591 1221.3,-102.443 1210.72,-101.868 1212.67,-108.591"/>
</g>
<!-- node_modules/type&#45;check/lib/index -->
<g id="node11" class="node"><title>node_modules/type&#45;check/lib/index</title>
<ellipse fill="none" stroke="#cfffac" cx="1253.24" cy="-18" rx="155.972" ry="18"/>
<text text-anchor="middle" x="1253.24" y="-14.3" font-family="Arial" font-size="14.00" fill="#cfffac">node_modules/type&#45;check/lib/index</text>
</g>
<!-- src/type&#45;&gt;node_modules/type&#45;check/lib/index -->
<g id="edge10" class="edge"><title>src/type&#45;&gt;node_modules/type&#45;check/lib/index</title>
<path fill="none" stroke="#757575" d="M1253.24,-71.6966C1253.24,-63.9827 1253.24,-54.7125 1253.24,-46.1124"/>
<polygon fill="#757575" stroke="#757575" points="1256.74,-46.1043 1253.24,-36.1043 1249.74,-46.1044 1256.74,-46.1043"/>
</g>
</g>
</svg>
