<?xml version="1.0" encoding="UTF-8" standalone="no"?>
<!DOCTYPE svg PUBLIC "-//W3C//DTD SVG 1.1//EN"
 "http://www.w3.org/Graphics/SVG/1.1/DTD/svg11.dtd">
<!-- Generated by graphviz version 2.38.0 (20140413.2041)
 -->
<!-- Title: G Pages: 1 -->
<svg width="2427pt" height="124pt"
 viewBox="0.00 0.00 2426.51 123.98" xmlns="http://www.w3.org/2000/svg" xmlns:xlink="http://www.w3.org/1999/xlink">
<g id="graph0" class="graph" transform="scale(1 1) rotate(0) translate(7.992 115.992)">
<title>G</title>
<polygon fill="#000000" stroke="none" points="-7.992,7.992 -7.992,-115.992 2418.51,-115.992 2418.51,7.992 -7.992,7.992"/>
<!-- index -->
<g id="node1" class="node"><title>index</title>
<ellipse fill="none" stroke="#c6c5fe" cx="1178.39" cy="-90" rx="32.4942" ry="18"/>
<text text-anchor="middle" x="1178.39" y="-86.3" font-family="Arial" font-size="14.00" fill="#c6c5fe">index</text>
</g>
<!-- ../node_modules/deep&#45;equal/index -->
<g id="node2" class="node"><title>../node_modules/deep&#45;equal/index</title>
<ellipse fill="none" stroke="#cfffac" cx="153.386" cy="-18" rx="153.273" ry="18"/>
<text text-anchor="middle" x="153.386" y="-14.3" font-family="Arial" font-size="14.00" fill="#cfffac">../node_modules/deep&#45;equal/index</text>
</g>
<!-- index&#45;&gt;../node_modules/deep&#45;equal/index -->
<g id="edge1" class="edge"><title>index&#45;&gt;../node_modules/deep&#45;equal/index</title>
<path fill="none" stroke="#757575" d="M1145.86,-87.4998C1031.82,-82.1327 639.515,-62.7718 316.386,-36 301.733,-34.7859 286.353,-33.3692 271.137,-31.8812"/>
<polygon fill="#757575" stroke="#757575" points="271.467,-28.3968 261.171,-30.8944 270.777,-35.3628 271.467,-28.3968"/>
</g>
<!-- ../node_modules/fun&#45;apply/src/index -->
<g id="node3" class="node"><title>../node_modules/fun&#45;apply/src/index</title>
<ellipse fill="none" stroke="#cfffac" cx="484.386" cy="-18" rx="159.472" ry="18"/>
<text text-anchor="middle" x="484.386" y="-14.3" font-family="Arial" font-size="14.00" fill="#cfffac">../node_modules/fun&#45;apply/src/index</text>
</g>
<!-- index&#45;&gt;../node_modules/fun&#45;apply/src/index -->
<g id="edge2" class="edge"><title>index&#45;&gt;../node_modules/fun&#45;apply/src/index</title>
<path fill="none" stroke="#757575" d="M1146.66,-85.8085C1064.82,-77.573 839.816,-54.9257 652.386,-36 638.286,-34.5762 623.52,-33.0839 608.842,-31.5997"/>
<polygon fill="#757575" stroke="#757575" points="609.006,-28.0985 598.704,-30.5745 608.301,-35.063 609.006,-28.0985"/>
</g>
<!-- ../node_modules/fun&#45;boolean/src/index -->
<g id="node4" class="node"><title>../node_modules/fun&#45;boolean/src/index</title>
<ellipse fill="none" stroke="#cfffac" cx="832.386" cy="-18" rx="170.87" ry="18"/>
<text text-anchor="middle" x="832.386" y="-14.3" font-family="Arial" font-size="14.00" fill="#cfffac">../node_modules/fun&#45;boolean/src/index</text>
</g>
<!-- index&#45;&gt;../node_modules/fun&#45;boolean/src/index -->
<g id="edge3" class="edge"><title>index&#45;&gt;../node_modules/fun&#45;boolean/src/index</title>
<path fill="none" stroke="#757575" d="M1148.29,-82.9104C1097.38,-72.6123 992.534,-51.3998 917.592,-36.238"/>
<polygon fill="#757575" stroke="#757575" points="918.181,-32.7865 907.686,-34.234 916.793,-39.6475 918.181,-32.7865"/>
</g>
<!-- ../node_modules/fun&#45;curry/src/index -->
<g id="node5" class="node"><title>../node_modules/fun&#45;curry/src/index</title>
<ellipse fill="none" stroke="#cfffac" cx="1178.39" cy="-18" rx="157.072" ry="18"/>
<text text-anchor="middle" x="1178.39" y="-14.3" font-family="Arial" font-size="14.00" fill="#cfffac">../node_modules/fun&#45;curry/src/index</text>
</g>
<!-- index&#45;&gt;../node_modules/fun&#45;curry/src/index -->
<g id="edge4" class="edge"><title>index&#45;&gt;../node_modules/fun&#45;curry/src/index</title>
<path fill="none" stroke="#757575" d="M1178.39,-71.6966C1178.39,-63.9827 1178.39,-54.7125 1178.39,-46.1124"/>
<polygon fill="#757575" stroke="#757575" points="1181.89,-46.1043 1178.39,-36.1043 1174.89,-46.1044 1181.89,-46.1043"/>
</g>
<!-- ../node_modules/set&#45;prop/src/index -->
<g id="node6" class="node"><title>../node_modules/set&#45;prop/src/index</title>
<ellipse fill="none" stroke="#cfffac" cx="1510.39" cy="-18" rx="156.772" ry="18"/>
<text text-anchor="middle" x="1510.39" y="-14.3" font-family="Arial" font-size="14.00" fill="#cfffac">../node_modules/set&#45;prop/src/index</text>
</g>
<!-- index&#45;&gt;../node_modules/set&#45;prop/src/index -->
<g id="edge5" class="edge"><title>index&#45;&gt;../node_modules/set&#45;prop/src/index</title>
<path fill="none" stroke="#757575" d="M1208.14,-82.7264C1257.39,-72.3421 1357.51,-51.2319 1429.03,-36.1542"/>
<polygon fill="#757575" stroke="#757575" points="1429.86,-39.5563 1438.92,-34.0685 1428.41,-32.7069 1429.86,-39.5563"/>
</g>
<!-- ../node_modules/stringify&#45;anything/src/index -->
<g id="node7" class="node"><title>../node_modules/stringify&#45;anything/src/index</title>
<ellipse fill="none" stroke="#cfffac" cx="1875.39" cy="-18" rx="190.366" ry="18"/>
<text text-anchor="middle" x="1875.39" y="-14.3" font-family="Arial" font-size="14.00" fill="#cfffac">../node_modules/stringify&#45;anything/src/index</text>
</g>
<!-- index&#45;&gt;../node_modules/stringify&#45;anything/src/index -->
<g id="edge6" class="edge"><title>index&#45;&gt;../node_modules/stringify&#45;anything/src/index</title>
<path fill="none" stroke="#757575" d="M1210.15,-85.8103C1302.23,-76.5626 1573.32,-49.3363 1739.66,-32.6312"/>
<polygon fill="#757575" stroke="#757575" points="1740.37,-36.0779 1749.97,-31.5961 1739.67,-29.113 1740.37,-36.0779"/>
</g>
<!-- ../node_modules/type&#45;check/lib/index -->
<g id="node8" class="node"><title>../node_modules/type&#45;check/lib/index</title>
<ellipse fill="none" stroke="#cfffac" cx="2247.39" cy="-18" rx="163.271" ry="18"/>
<text text-anchor="middle" x="2247.39" y="-14.3" font-family="Arial" font-size="14.00" fill="#cfffac">../node_modules/type&#45;check/lib/index</text>
</g>
<!-- index&#45;&gt;../node_modules/type&#45;check/lib/index -->
<g id="edge7" class="edge"><title>index&#45;&gt;../node_modules/type&#45;check/lib/index</title>
<path fill="none" stroke="#757575" d="M1210.96,-87.5313C1327.88,-82.1628 1737.28,-62.523 2074.39,-36 2090.08,-34.765 2106.57,-33.3273 2122.87,-31.8209"/>
<polygon fill="#757575" stroke="#757575" points="2123.35,-35.2909 2132.98,-30.8752 2122.7,-28.3213 2123.35,-35.2909"/>
</g>
</g>
</svg>
