<?xml version="1.0" encoding="UTF-8" standalone="no"?>
<!DOCTYPE svg PUBLIC "-//W3C//DTD SVG 1.1//EN"
 "http://www.w3.org/Graphics/SVG/1.1/DTD/svg11.dtd">
<!-- Generated by graphviz version 2.38.0 (20140413.2041)
 -->
<!-- Title: G Pages: 1 -->
<svg width="1320pt" height="268pt"
 viewBox="0.00 0.00 1319.57 267.98" xmlns="http://www.w3.org/2000/svg" xmlns:xlink="http://www.w3.org/1999/xlink">
<g id="graph0" class="graph" transform="scale(1 1) rotate(0) translate(7.992 259.992)">
<title>G</title>
<polygon fill="#000000" stroke="none" points="-7.992,7.992 -7.992,-259.992 1311.57,-259.992 1311.57,7.992 -7.992,7.992"/>
<!-- src/and -->
<g id="node1" class="node"><title>src/and</title>
<ellipse fill="none" stroke="#cfffac" cx="230.136" cy="-162" rx="40.8928" ry="18"/>
<text text-anchor="middle" x="230.136" y="-158.3" font-family="Arial" font-size="14.00" fill="#cfffac">src/and</text>
</g>
<!-- src/equal -->
<g id="node2" class="node"><title>src/equal</title>
<ellipse fill="none" stroke="#c6c5fe" cx="337.136" cy="-162" rx="48.1917" ry="18"/>
<text text-anchor="middle" x="337.136" y="-158.3" font-family="Arial" font-size="14.00" fill="#c6c5fe">src/equal</text>
</g>
<!-- node_modules/deep&#45;equal/index -->
<g id="node3" class="node"><title>node_modules/deep&#45;equal/index</title>
<ellipse fill="none" stroke="#cfffac" cx="172.136" cy="-90" rx="146.474" ry="18"/>
<text text-anchor="middle" x="172.136" y="-86.3" font-family="Arial" font-size="14.00" fill="#cfffac">node_modules/deep&#45;equal/index</text>
</g>
<!-- src/equal&#45;&gt;node_modules/deep&#45;equal/index -->
<g id="edge1" class="edge"><title>src/equal&#45;&gt;node_modules/deep&#45;equal/index</title>
<path fill="none" stroke="#757575" d="M306.487,-147.998C282.311,-137.741 248.144,-123.246 220.316,-111.44"/>
<polygon fill="#757575" stroke="#757575" points="221.337,-108.071 210.764,-107.388 218.603,-114.515 221.337,-108.071"/>
</g>
<!-- node_modules/stringify&#45;anything/src/index -->
<g id="node4" class="node"><title>node_modules/stringify&#45;anything/src/index</title>
<ellipse fill="none" stroke="#cfffac" cx="419.136" cy="-18" rx="182.768" ry="18"/>
<text text-anchor="middle" x="419.136" y="-14.3" font-family="Arial" font-size="14.00" fill="#cfffac">node_modules/stringify&#45;anything/src/index</text>
</g>
<!-- src/equal&#45;&gt;node_modules/stringify&#45;anything/src/index -->
<g id="edge2" class="edge"><title>src/equal&#45;&gt;node_modules/stringify&#45;anything/src/index</title>
<path fill="none" stroke="#757575" d="M302.085,-149.625C294.878,-147.547 287.302,-145.549 280.136,-144 161.683,-118.388 -62.7617,-163.123 17.136,-72 33.7571,-53.0437 157.657,-38.7066 263.568,-29.7548"/>
<polygon fill="#757575" stroke="#757575" points="264.082,-33.2242 273.757,-28.9054 263.501,-26.2484 264.082,-33.2242"/>
</g>
<!-- node_modules/type&#45;check/lib/index -->
<g id="node5" class="node"><title>node_modules/type&#45;check/lib/index</title>
<ellipse fill="none" stroke="#cfffac" cx="492.136" cy="-90" rx="155.972" ry="18"/>
<text text-anchor="middle" x="492.136" y="-86.3" font-family="Arial" font-size="14.00" fill="#cfffac">node_modules/type&#45;check/lib/index</text>
</g>
<!-- src/equal&#45;&gt;node_modules/type&#45;check/lib/index -->
<g id="edge3" class="edge"><title>src/equal&#45;&gt;node_modules/type&#45;check/lib/index</title>
<path fill="none" stroke="#757575" d="M366.655,-147.669C389.107,-137.529 420.416,-123.39 446.142,-111.771"/>
<polygon fill="#757575" stroke="#757575" points="447.668,-114.923 455.341,-107.617 444.787,-108.543 447.668,-114.923"/>
</g>
<!-- src/predicate -->
<g id="node6" class="node"><title>src/predicate</title>
<ellipse fill="none" stroke="#c6c5fe" cx="730.136" cy="-90" rx="64.189" ry="18"/>
<text text-anchor="middle" x="730.136" y="-86.3" font-family="Arial" font-size="14.00" fill="#c6c5fe">src/predicate</text>
</g>
<!-- src/equal&#45;&gt;src/predicate -->
<g id="edge4" class="edge"><title>src/equal&#45;&gt;src/predicate</title>
<path fill="none" stroke="#757575" d="M372.187,-149.625C379.394,-147.547 386.97,-145.549 394.136,-144 509.45,-119.067 541.115,-129.402 657.136,-108 662.495,-107.011 668.053,-105.892 673.604,-104.71"/>
<polygon fill="#757575" stroke="#757575" points="674.521,-108.091 683.539,-102.53 673.022,-101.254 674.521,-108.091"/>
</g>
<!-- src/predicate&#45;&gt;node_modules/stringify&#45;anything/src/index -->
<g id="edge21" class="edge"><title>src/predicate&#45;&gt;node_modules/stringify&#45;anything/src/index</title>
<path fill="none" stroke="#757575" d="M682.245,-77.7774C673.879,-75.8369 665.256,-73.8496 657.136,-72 604.84,-60.0882 546.01,-46.9846 499.924,-36.7869"/>
<polygon fill="#757575" stroke="#757575" points="500.512,-33.3326 489.992,-34.5907 499.001,-40.1674 500.512,-33.3326"/>
</g>
<!-- src/if&#45;then&#45;else -->
<g id="node9" class="node"><title>src/if&#45;then&#45;else</title>
<ellipse fill="none" stroke="#cfffac" cx="921.136" cy="-18" rx="71.4873" ry="18"/>
<text text-anchor="middle" x="921.136" y="-14.3" font-family="Arial" font-size="14.00" fill="#cfffac">src/if&#45;then&#45;else</text>
</g>
<!-- src/predicate&#45;&gt;src/if&#45;then&#45;else -->
<g id="edge22" class="edge"><title>src/predicate&#45;&gt;src/if&#45;then&#45;else</title>
<path fill="none" stroke="#757575" d="M767.871,-75.1703C797.922,-64.1571 840.194,-48.6645 872.735,-36.7386"/>
<polygon fill="#757575" stroke="#757575" points="874.312,-39.8884 882.497,-33.1609 871.903,-33.3158 874.312,-39.8884"/>
</g>
<!-- src/fail -->
<g id="node7" class="node"><title>src/fail</title>
<ellipse fill="none" stroke="#c6c5fe" cx="546.136" cy="-162" rx="37.8943" ry="18"/>
<text text-anchor="middle" x="546.136" y="-158.3" font-family="Arial" font-size="14.00" fill="#c6c5fe">src/fail</text>
</g>
<!-- src/fail&#45;&gt;src/predicate -->
<g id="edge5" class="edge"><title>src/fail&#45;&gt;src/predicate</title>
<path fill="none" stroke="#757575" d="M574.886,-150.062C604.048,-138.968 649.643,-121.622 683.89,-108.594"/>
<polygon fill="#757575" stroke="#757575" points="685.572,-111.699 693.674,-104.872 683.083,-105.156 685.572,-111.699"/>
</g>
<!-- src/falsey -->
<g id="node8" class="node"><title>src/falsey</title>
<ellipse fill="none" stroke="#c6c5fe" cx="652.136" cy="-162" rx="50.0912" ry="18"/>
<text text-anchor="middle" x="652.136" y="-158.3" font-family="Arial" font-size="14.00" fill="#c6c5fe">src/falsey</text>
</g>
<!-- src/falsey&#45;&gt;src/predicate -->
<g id="edge6" class="edge"><title>src/falsey&#45;&gt;src/predicate</title>
<path fill="none" stroke="#757575" d="M669.835,-145.116C680.061,-135.939 693.105,-124.233 704.443,-114.057"/>
<polygon fill="#757575" stroke="#757575" points="706.861,-116.591 711.965,-107.307 702.185,-111.381 706.861,-116.591"/>
</g>
<!-- src/index -->
<g id="node10" class="node"><title>src/index</title>
<ellipse fill="none" stroke="#c6c5fe" cx="769.136" cy="-234" rx="48.1917" ry="18"/>
<text text-anchor="middle" x="769.136" y="-230.3" font-family="Arial" font-size="14.00" fill="#c6c5fe">src/index</text>
</g>
<!-- src/index&#45;&gt;src/and -->
<g id="edge7" class="edge"><title>src/index&#45;&gt;src/and</title>
<path fill="none" stroke="#757575" d="M721.369,-231.302C633.208,-227.404 439.382,-215.251 280.136,-180 276.72,-179.244 273.212,-178.336 269.715,-177.337"/>
<polygon fill="#757575" stroke="#757575" points="270.56,-173.935 259.973,-174.336 268.5,-180.625 270.56,-173.935"/>
</g>
<!-- src/index&#45;&gt;src/equal -->
<g id="edge8" class="edge"><title>src/index&#45;&gt;src/equal</title>
<path fill="none" stroke="#757575" d="M723.141,-228.737C652.032,-221.644 511.366,-205.615 394.136,-180 390.219,-179.144 386.179,-178.157 382.143,-177.097"/>
<polygon fill="#757575" stroke="#757575" points="382.764,-173.638 372.193,-174.35 380.901,-180.386 382.764,-173.638"/>
</g>
<!-- src/index&#45;&gt;src/predicate -->
<g id="edge16" class="edge"><title>src/index&#45;&gt;src/predicate</title>
<path fill="none" stroke="#757575" d="M761.988,-216.036C757.839,-205.743 752.738,-192.267 749.136,-180 743.137,-159.566 738.188,-135.977 734.846,-118.22"/>
<polygon fill="#757575" stroke="#757575" points="738.265,-117.46 733.023,-108.253 731.379,-118.72 738.265,-117.46"/>
</g>
<!-- src/index&#45;&gt;src/fail -->
<g id="edge9" class="edge"><title>src/index&#45;&gt;src/fail</title>
<path fill="none" stroke="#757575" d="M731.869,-222.418C696.117,-212.115 640.696,-195.749 593.136,-180 590.263,-179.049 587.301,-178.041 584.327,-177.01"/>
<polygon fill="#757575" stroke="#757575" points="585.477,-173.705 574.882,-173.678 583.148,-180.306 585.477,-173.705"/>
</g>
<!-- src/index&#45;&gt;src/falsey -->
<g id="edge10" class="edge"><title>src/index&#45;&gt;src/falsey</title>
<path fill="none" stroke="#757575" d="M744.609,-218.326C727.564,-208.128 704.63,-194.407 685.866,-183.18"/>
<polygon fill="#757575" stroke="#757575" points="687.412,-180.027 677.034,-177.896 683.818,-186.034 687.412,-180.027"/>
</g>
<!-- src/index&#45;&gt;src/if&#45;then&#45;else -->
<g id="edge11" class="edge"><title>src/index&#45;&gt;src/if&#45;then&#45;else</title>
<path fill="none" stroke="#757575" d="M817.254,-232.436C898.704,-230.348 1058.3,-220.992 1093.14,-180 1141.35,-123.257 1034.01,-65.8 967.975,-37.3387"/>
<polygon fill="#757575" stroke="#757575" points="969.128,-34.0262 958.554,-33.3534 966.4,-40.4731 969.128,-34.0262"/>
</g>
<!-- src/match -->
<g id="node11" class="node"><title>src/match</title>
<ellipse fill="none" stroke="#c6c5fe" cx="809.136" cy="-162" rx="50.8918" ry="18"/>
<text text-anchor="middle" x="809.136" y="-158.3" font-family="Arial" font-size="14.00" fill="#c6c5fe">src/match</text>
</g>
<!-- src/index&#45;&gt;src/match -->
<g id="edge12" class="edge"><title>src/index&#45;&gt;src/match</title>
<path fill="none" stroke="#757575" d="M778.819,-216.055C783.536,-207.801 789.307,-197.701 794.543,-188.538"/>
<polygon fill="#757575" stroke="#757575" points="797.62,-190.208 799.542,-179.789 791.542,-186.735 797.62,-190.208"/>
</g>
<!-- src/not -->
<g id="node12" class="node"><title>src/not</title>
<ellipse fill="none" stroke="#cfffac" cx="1178.14" cy="-162" rx="38.1938" ry="18"/>
<text text-anchor="middle" x="1178.14" y="-158.3" font-family="Arial" font-size="14.00" fill="#cfffac">src/not</text>
</g>
<!-- src/index&#45;&gt;src/not -->
<g id="edge13" class="edge"><title>src/index&#45;&gt;src/not</title>
<path fill="none" stroke="#757575" d="M815.252,-228.666C883.731,-221.666 1016.06,-205.969 1126.14,-180 1130.3,-179.019 1134.6,-177.857 1138.87,-176.609"/>
<polygon fill="#757575" stroke="#757575" points="1140.16,-179.874 1148.68,-173.583 1138.1,-173.185 1140.16,-179.874"/>
</g>
<!-- src/or -->
<g id="node13" class="node"><title>src/or</title>
<ellipse fill="none" stroke="#cfffac" cx="1269.14" cy="-162" rx="34.394" ry="18"/>
<text text-anchor="middle" x="1269.14" y="-158.3" font-family="Arial" font-size="14.00" fill="#cfffac">src/or</text>
</g>
<!-- src/index&#45;&gt;src/or -->
<g id="edge14" class="edge"><title>src/index&#45;&gt;src/or</title>
<path fill="none" stroke="#757575" d="M816.772,-231.419C900.517,-227.768 1079.09,-216.08 1225.14,-180 1227.97,-179.3 1230.86,-178.466 1233.75,-177.548"/>
<polygon fill="#757575" stroke="#757575" points="1235.13,-180.773 1243.43,-174.181 1232.83,-174.162 1235.13,-180.773"/>
</g>
<!-- src/pass -->
<g id="node14" class="node"><title>src/pass</title>
<ellipse fill="none" stroke="#c6c5fe" cx="924.136" cy="-162" rx="46.2923" ry="18"/>
<text text-anchor="middle" x="924.136" y="-158.3" font-family="Arial" font-size="14.00" fill="#c6c5fe">src/pass</text>
</g>
<!-- src/index&#45;&gt;src/pass -->
<g id="edge15" class="edge"><title>src/index&#45;&gt;src/pass</title>
<path fill="none" stroke="#757575" d="M798.655,-219.669C823.484,-208.456 859.144,-192.351 886.109,-180.174"/>
<polygon fill="#757575" stroke="#757575" points="887.578,-183.35 895.251,-176.045 884.697,-176.971 887.578,-183.35"/>
</g>
<!-- src/truthy -->
<g id="node15" class="node"><title>src/truthy</title>
<ellipse fill="none" stroke="#c6c5fe" cx="1036.14" cy="-162" rx="48.1917" ry="18"/>
<text text-anchor="middle" x="1036.14" y="-158.3" font-family="Arial" font-size="14.00" fill="#c6c5fe">src/truthy</text>
</g>
<!-- src/index&#45;&gt;src/truthy -->
<g id="edge17" class="edge"><title>src/index&#45;&gt;src/truthy</title>
<path fill="none" stroke="#757575" d="M808.746,-223.536C851.064,-213.302 920.042,-196.261 979.136,-180 982.733,-179.01 986.449,-177.961 990.181,-176.89"/>
<polygon fill="#757575" stroke="#757575" points="991.396,-180.181 1000.02,-174.025 989.439,-173.46 991.396,-180.181"/>
</g>
<!-- src/type -->
<g id="node16" class="node"><title>src/type</title>
<ellipse fill="none" stroke="#c6c5fe" cx="447.136" cy="-162" rx="43.5923" ry="18"/>
<text text-anchor="middle" x="447.136" y="-158.3" font-family="Arial" font-size="14.00" fill="#c6c5fe">src/type</text>
</g>
<!-- src/index&#45;&gt;src/type -->
<g id="edge18" class="edge"><title>src/index&#45;&gt;src/type</title>
<path fill="none" stroke="#757575" d="M725.748,-226.163C672.097,-217.325 578.183,-200.597 499.136,-180 495.819,-179.136 492.403,-178.177 488.983,-177.168"/>
<polygon fill="#757575" stroke="#757575" points="489.996,-173.818 479.409,-174.227 487.941,-180.509 489.996,-173.818"/>
</g>
<!-- src/match&#45;&gt;src/predicate -->
<g id="edge19" class="edge"><title>src/match&#45;&gt;src/predicate</title>
<path fill="none" stroke="#757575" d="M791.21,-145.116C780.853,-135.939 767.642,-124.233 756.158,-114.057"/>
<polygon fill="#757575" stroke="#757575" points="758.345,-111.319 748.54,-107.307 753.703,-116.558 758.345,-111.319"/>
</g>
<!-- src/pass&#45;&gt;src/predicate -->
<g id="edge20" class="edge"><title>src/pass&#45;&gt;src/predicate</title>
<path fill="none" stroke="#757575" d="M891.227,-149.125C860.001,-137.859 812.738,-120.805 777.471,-108.08"/>
<polygon fill="#757575" stroke="#757575" points="778.459,-104.715 767.865,-104.613 776.083,-111.3 778.459,-104.715"/>
</g>
<!-- src/truthy&#45;&gt;src/predicate -->
<g id="edge23" class="edge"><title>src/truthy&#45;&gt;src/predicate</title>
<path fill="none" stroke="#757575" d="M1000.38,-149.859C993.363,-147.808 986.04,-145.761 979.136,-144 915.832,-127.85 842.616,-112.68 792.04,-102.743"/>
<polygon fill="#757575" stroke="#757575" points="792.406,-99.2484 781.92,-100.765 791.063,-106.118 792.406,-99.2484"/>
</g>
<!-- src/type&#45;&gt;node_modules/type&#45;check/lib/index -->
<g id="edge24" class="edge"><title>src/type&#45;&gt;node_modules/type&#45;check/lib/index</title>
<path fill="none" stroke="#757575" d="M457.8,-144.411C463.158,-136.077 469.766,-125.797 475.751,-116.488"/>
<polygon fill="#757575" stroke="#757575" points="478.772,-118.261 481.236,-107.956 472.884,-114.475 478.772,-118.261"/>
</g>
<!-- src/type&#45;&gt;src/predicate -->
<g id="edge25" class="edge"><title>src/type&#45;&gt;src/predicate</title>
<path fill="none" stroke="#757575" d="M479.451,-149.927C485.937,-147.848 492.728,-145.773 499.136,-144 568.549,-124.79 586.952,-124.168 657.136,-108 662.081,-106.861 667.214,-105.674 672.363,-104.481"/>
<polygon fill="#757575" stroke="#757575" points="673.288,-107.859 682.237,-102.189 671.705,-101.041 673.288,-107.859"/>
</g>
</g>
</svg>
