<?xml version="1.0" encoding="UTF-8" standalone="no"?>
<!DOCTYPE svg PUBLIC "-//W3C//DTD SVG 1.1//EN"
 "http://www.w3.org/Graphics/SVG/1.1/DTD/svg11.dtd">
<!-- Generated by graphviz version 2.38.0 (20140413.2041)
 -->
<!-- Title: G Pages: 1 -->
<svg width="1493pt" height="340pt"
 viewBox="0.00 0.00 1493.21 339.98" xmlns="http://www.w3.org/2000/svg" xmlns:xlink="http://www.w3.org/1999/xlink">
<g id="graph0" class="graph" transform="scale(1 1) rotate(0) translate(7.992 331.992)">
<title>G</title>
<polygon fill="#000000" stroke="none" points="-7.992,7.992 -7.992,-331.992 1485.22,-331.992 1485.22,7.992 -7.992,7.992"/>
<!-- src/equal&#45;deep -->
<g id="node1" class="node"><title>src/equal&#45;deep</title>
<ellipse fill="none" stroke="#c6c5fe" cx="146.237" cy="-234" rx="72.5877" ry="18"/>
<text text-anchor="middle" x="146.237" y="-230.3" font-family="Arial" font-size="14.00" fill="#c6c5fe">src/equal&#45;deep</text>
</g>
<!-- node_modules/deep&#45;equal/index -->
<g id="node2" class="node"><title>node_modules/deep&#45;equal/index</title>
<ellipse fill="none" stroke="#cfffac" cx="146.237" cy="-162" rx="146.474" ry="18"/>
<text text-anchor="middle" x="146.237" y="-158.3" font-family="Arial" font-size="14.00" fill="#cfffac">node_modules/deep&#45;equal/index</text>
</g>
<!-- src/equal&#45;deep&#45;&gt;node_modules/deep&#45;equal/index -->
<g id="edge1" class="edge"><title>src/equal&#45;deep&#45;&gt;node_modules/deep&#45;equal/index</title>
<path fill="none" stroke="#757575" d="M146.237,-215.697C146.237,-207.983 146.237,-198.712 146.237,-190.112"/>
<polygon fill="#757575" stroke="#757575" points="149.737,-190.104 146.237,-180.104 142.737,-190.104 149.737,-190.104"/>
</g>
<!-- src/equal -->
<g id="node3" class="node"><title>src/equal</title>
<ellipse fill="none" stroke="#cfffac" cx="285.237" cy="-234" rx="48.1917" ry="18"/>
<text text-anchor="middle" x="285.237" y="-230.3" font-family="Arial" font-size="14.00" fill="#cfffac">src/equal</text>
</g>
<!-- src/if&#45;then&#45;else -->
<g id="node4" class="node"><title>src/if&#45;then&#45;else</title>
<ellipse fill="none" stroke="#cfffac" cx="423.237" cy="-234" rx="71.4873" ry="18"/>
<text text-anchor="middle" x="423.237" y="-230.3" font-family="Arial" font-size="14.00" fill="#cfffac">src/if&#45;then&#45;else</text>
</g>
<!-- src/index -->
<g id="node5" class="node"><title>src/index</title>
<ellipse fill="none" stroke="#c6c5fe" cx="768.237" cy="-306" rx="48.1917" ry="18"/>
<text text-anchor="middle" x="768.237" y="-302.3" font-family="Arial" font-size="14.00" fill="#c6c5fe">src/index</text>
</g>
<!-- src/index&#45;&gt;src/equal&#45;deep -->
<g id="edge2" class="edge"><title>src/index&#45;&gt;src/equal&#45;deep</title>
<path fill="none" stroke="#757575" d="M721.077,-302.069C626.977,-295.847 409.369,-279.584 228.237,-252 221.67,-251 214.836,-249.815 208.038,-248.544"/>
<polygon fill="#757575" stroke="#757575" points="208.623,-245.092 198.141,-246.631 207.294,-251.965 208.623,-245.092"/>
</g>
<!-- src/index&#45;&gt;src/equal -->
<g id="edge3" class="edge"><title>src/index&#45;&gt;src/equal</title>
<path fill="none" stroke="#757575" d="M721.296,-301.632C642.525,-295.427 479.019,-280.174 343.237,-252 339.076,-251.137 334.78,-250.121 330.496,-249.023"/>
<polygon fill="#757575" stroke="#757575" points="331.156,-245.576 320.589,-246.343 329.329,-252.333 331.156,-245.576"/>
</g>
<!-- src/index&#45;&gt;src/if&#45;then&#45;else -->
<g id="edge4" class="edge"><title>src/index&#45;&gt;src/if&#45;then&#45;else</title>
<path fill="none" stroke="#757575" d="M726.439,-296.801C674.192,-286.516 582.043,-268.253 503.237,-252 497.535,-250.824 491.608,-249.589 485.674,-248.343"/>
<polygon fill="#757575" stroke="#757575" points="486.225,-244.883 475.718,-246.246 484.782,-251.732 486.225,-244.883"/>
</g>
<!-- src/lib/boolean -->
<g id="node6" class="node"><title>src/lib/boolean</title>
<ellipse fill="none" stroke="#cfffac" cx="583.237" cy="-234" rx="70.6878" ry="18"/>
<text text-anchor="middle" x="583.237" y="-230.3" font-family="Arial" font-size="14.00" fill="#cfffac">src/lib/boolean</text>
</g>
<!-- src/index&#45;&gt;src/lib/boolean -->
<g id="edge5" class="edge"><title>src/index&#45;&gt;src/lib/boolean</title>
<path fill="none" stroke="#757575" d="M735.589,-292.647C706.416,-281.608 663.324,-265.303 630.406,-252.848"/>
<polygon fill="#757575" stroke="#757575" points="631.57,-249.546 620.979,-249.281 629.093,-256.093 631.57,-249.546"/>
</g>
<!-- src/lib/curry -->
<g id="node7" class="node"><title>src/lib/curry</title>
<ellipse fill="none" stroke="#c6c5fe" cx="768.237" cy="-234" rx="57.6901" ry="18"/>
<text text-anchor="middle" x="768.237" y="-230.3" font-family="Arial" font-size="14.00" fill="#c6c5fe">src/lib/curry</text>
</g>
<!-- src/index&#45;&gt;src/lib/curry -->
<g id="edge6" class="edge"><title>src/index&#45;&gt;src/lib/curry</title>
<path fill="none" stroke="#757575" d="M768.237,-287.697C768.237,-279.983 768.237,-270.712 768.237,-262.112"/>
<polygon fill="#757575" stroke="#757575" points="771.737,-262.104 768.237,-252.104 764.737,-262.104 771.737,-262.104"/>
</g>
<!-- src/lib/name&#45;function -->
<g id="node8" class="node"><title>src/lib/name&#45;function</title>
<ellipse fill="none" stroke="#c6c5fe" cx="675.237" cy="-162" rx="95.5831" ry="18"/>
<text text-anchor="middle" x="675.237" y="-158.3" font-family="Arial" font-size="14.00" fill="#c6c5fe">src/lib/name&#45;function</text>
</g>
<!-- src/index&#45;&gt;src/lib/name&#45;function -->
<g id="edge7" class="edge"><title>src/index&#45;&gt;src/lib/name&#45;function</title>
<path fill="none" stroke="#757575" d="M743.023,-290.526C728.857,-281.201 711.927,-267.867 701.237,-252 688.698,-233.388 682.105,-208.653 678.701,-189.983"/>
<polygon fill="#757575" stroke="#757575" points="682.145,-189.356 677.082,-180.049 675.236,-190.481 682.145,-189.356"/>
</g>
<!-- src/lib/set&#45;prop -->
<g id="node9" class="node"><title>src/lib/set&#45;prop</title>
<ellipse fill="none" stroke="#cfffac" cx="861.237" cy="-162" rx="72.2875" ry="18"/>
<text text-anchor="middle" x="861.237" y="-158.3" font-family="Arial" font-size="14.00" fill="#cfffac">src/lib/set&#45;prop</text>
</g>
<!-- src/index&#45;&gt;src/lib/set&#45;prop -->
<g id="edge8" class="edge"><title>src/index&#45;&gt;src/lib/set&#45;prop</title>
<path fill="none" stroke="#757575" d="M793.452,-290.526C807.618,-281.201 824.547,-267.867 835.237,-252 847.776,-233.388 854.369,-208.653 857.773,-189.983"/>
<polygon fill="#757575" stroke="#757575" points="861.238,-190.481 859.392,-180.049 854.329,-189.356 861.238,-190.481"/>
</g>
<!-- src/match -->
<g id="node10" class="node"><title>src/match</title>
<ellipse fill="none" stroke="#cfffac" cx="933.237" cy="-234" rx="50.8918" ry="18"/>
<text text-anchor="middle" x="933.237" y="-230.3" font-family="Arial" font-size="14.00" fill="#cfffac">src/match</text>
</g>
<!-- src/index&#45;&gt;src/match -->
<g id="edge9" class="edge"><title>src/index&#45;&gt;src/match</title>
<path fill="none" stroke="#757575" d="M798.886,-291.998C825.261,-280.808 863.527,-264.574 892.48,-252.291"/>
<polygon fill="#757575" stroke="#757575" points="894.073,-255.417 901.911,-248.29 891.339,-248.973 894.073,-255.417"/>
</g>
<!-- src/throws&#45;with -->
<g id="node11" class="node"><title>src/throws&#45;with</title>
<ellipse fill="none" stroke="#cfffac" cx="1073.24" cy="-234" rx="71.4873" ry="18"/>
<text text-anchor="middle" x="1073.24" y="-230.3" font-family="Arial" font-size="14.00" fill="#cfffac">src/throws&#45;with</text>
</g>
<!-- src/index&#45;&gt;src/throws&#45;with -->
<g id="edge10" class="edge"><title>src/index&#45;&gt;src/throws&#45;with</title>
<path fill="none" stroke="#757575" d="M808.11,-295.849C860.116,-283.913 951.603,-262.916 1012.32,-248.98"/>
<polygon fill="#757575" stroke="#757575" points="1013.2,-252.37 1022.17,-246.721 1011.64,-245.547 1013.2,-252.37"/>
</g>
<!-- src/truthy -->
<g id="node12" class="node"><title>src/truthy</title>
<ellipse fill="none" stroke="#cfffac" cx="1211.24" cy="-234" rx="48.1917" ry="18"/>
<text text-anchor="middle" x="1211.24" y="-230.3" font-family="Arial" font-size="14.00" fill="#cfffac">src/truthy</text>
</g>
<!-- src/index&#45;&gt;src/truthy -->
<g id="edge11" class="edge"><title>src/index&#45;&gt;src/truthy</title>
<path fill="none" stroke="#757575" d="M814.551,-300.865C887.249,-293.872 1032.34,-277.89 1153.24,-252 1157.39,-251.11 1161.68,-250.076 1165.97,-248.966"/>
<polygon fill="#757575" stroke="#757575" points="1167.14,-252.274 1175.87,-246.27 1165.3,-245.52 1167.14,-252.274"/>
</g>
<!-- src/type -->
<g id="node13" class="node"><title>src/type</title>
<ellipse fill="none" stroke="#c6c5fe" cx="1321.24" cy="-234" rx="43.5923" ry="18"/>
<text text-anchor="middle" x="1321.24" y="-230.3" font-family="Arial" font-size="14.00" fill="#c6c5fe">src/type</text>
</g>
<!-- src/index&#45;&gt;src/type -->
<g id="edge12" class="edge"><title>src/index&#45;&gt;src/type</title>
<path fill="none" stroke="#757575" d="M815.964,-303.192C905.512,-299.085 1104.46,-286.564 1268.24,-252 1271.9,-251.226 1275.68,-250.297 1279.44,-249.276"/>
<polygon fill="#757575" stroke="#757575" points="1280.67,-252.564 1289.29,-246.408 1278.71,-245.843 1280.67,-252.564"/>
</g>
<!-- src/lib/curry&#45;&gt;src/lib/name&#45;function -->
<g id="edge13" class="edge"><title>src/lib/curry&#45;&gt;src/lib/name&#45;function</title>
<path fill="none" stroke="#757575" d="M747.134,-217.116C734.796,-207.829 719.017,-195.953 705.387,-185.693"/>
<polygon fill="#757575" stroke="#757575" points="707.322,-182.769 697.227,-179.552 703.112,-188.362 707.322,-182.769"/>
</g>
<!-- src/lib/curry&#45;&gt;src/lib/set&#45;prop -->
<g id="edge14" class="edge"><title>src/lib/curry&#45;&gt;src/lib/set&#45;prop</title>
<path fill="none" stroke="#757575" d="M789.34,-217.116C801.767,-207.763 817.684,-195.782 831.381,-185.472"/>
<polygon fill="#757575" stroke="#757575" points="833.687,-188.117 839.572,-179.307 829.477,-182.524 833.687,-188.117"/>
</g>
<!-- src/lib/stringify -->
<g id="node14" class="node"><title>src/lib/stringify</title>
<ellipse fill="none" stroke="#c6c5fe" cx="675.237" cy="-90" rx="69.5877" ry="18"/>
<text text-anchor="middle" x="675.237" y="-86.3" font-family="Arial" font-size="14.00" fill="#c6c5fe">src/lib/stringify</text>
</g>
<!-- src/lib/name&#45;function&#45;&gt;src/lib/stringify -->
<g id="edge15" class="edge"><title>src/lib/name&#45;function&#45;&gt;src/lib/stringify</title>
<path fill="none" stroke="#757575" d="M675.237,-143.697C675.237,-135.983 675.237,-126.712 675.237,-118.112"/>
<polygon fill="#757575" stroke="#757575" points="678.737,-118.104 675.237,-108.104 671.737,-118.104 678.737,-118.104"/>
</g>
<!-- node_modules/type&#45;check/lib/index -->
<g id="node16" class="node"><title>node_modules/type&#45;check/lib/index</title>
<ellipse fill="none" stroke="#cfffac" cx="1321.24" cy="-162" rx="155.972" ry="18"/>
<text text-anchor="middle" x="1321.24" y="-158.3" font-family="Arial" font-size="14.00" fill="#cfffac">node_modules/type&#45;check/lib/index</text>
</g>
<!-- src/type&#45;&gt;node_modules/type&#45;check/lib/index -->
<g id="edge17" class="edge"><title>src/type&#45;&gt;node_modules/type&#45;check/lib/index</title>
<path fill="none" stroke="#757575" d="M1321.24,-215.697C1321.24,-207.983 1321.24,-198.712 1321.24,-190.112"/>
<polygon fill="#757575" stroke="#757575" points="1324.74,-190.104 1321.24,-180.104 1317.74,-190.104 1324.74,-190.104"/>
</g>
<!-- node_modules/json&#45;stringify&#45;safe/stringify -->
<g id="node15" class="node"><title>node_modules/json&#45;stringify&#45;safe/stringify</title>
<ellipse fill="none" stroke="#cfffac" cx="675.237" cy="-18" rx="181.968" ry="18"/>
<text text-anchor="middle" x="675.237" y="-14.3" font-family="Arial" font-size="14.00" fill="#cfffac">node_modules/json&#45;stringify&#45;safe/stringify</text>
</g>
<!-- src/lib/stringify&#45;&gt;node_modules/json&#45;stringify&#45;safe/stringify -->
<g id="edge16" class="edge"><title>src/lib/stringify&#45;&gt;node_modules/json&#45;stringify&#45;safe/stringify</title>
<path fill="none" stroke="#757575" d="M675.237,-71.6966C675.237,-63.9827 675.237,-54.7125 675.237,-46.1124"/>
<polygon fill="#757575" stroke="#757575" points="678.737,-46.1043 675.237,-36.1043 671.737,-46.1044 678.737,-46.1043"/>
</g>
</g>
</svg>
