<?xml version="1.0" encoding="UTF-8" standalone="no"?>
<!DOCTYPE svg PUBLIC "-//W3C//DTD SVG 1.1//EN"
 "http://www.w3.org/Graphics/SVG/1.1/DTD/svg11.dtd">
<!-- Generated by graphviz version 2.38.0 (20140413.2041)
 -->
<!-- Title: G Pages: 1 -->
<svg width="1308pt" height="340pt"
 viewBox="0.00 0.00 1308.32 339.98" xmlns="http://www.w3.org/2000/svg" xmlns:xlink="http://www.w3.org/1999/xlink">
<g id="graph0" class="graph" transform="scale(1 1) rotate(0) translate(7.992 331.992)">
<title>G</title>
<polygon fill="#000000" stroke="none" points="-7.992,7.992 -7.992,-331.992 1300.32,-331.992 1300.32,7.992 -7.992,7.992"/>
<!-- src/and -->
<g id="node1" class="node"><title>src/and</title>
<ellipse fill="none" stroke="#c6c5fe" cx="816.347" cy="-234" rx="40.8928" ry="18"/>
<text text-anchor="middle" x="816.347" y="-230.3" font-family="Arial" font-size="14.00" fill="#c6c5fe">src/and</text>
</g>
<!-- node_modules/stringify&#45;anything/src/index -->
<g id="node2" class="node"><title>node_modules/stringify&#45;anything/src/index</title>
<ellipse fill="none" stroke="#cfffac" cx="585.347" cy="-18" rx="182.768" ry="18"/>
<text text-anchor="middle" x="585.347" y="-14.3" font-family="Arial" font-size="14.00" fill="#cfffac">node_modules/stringify&#45;anything/src/index</text>
</g>
<!-- src/and&#45;&gt;node_modules/stringify&#45;anything/src/index -->
<g id="edge1" class="edge"><title>src/and&#45;&gt;node_modules/stringify&#45;anything/src/index</title>
<path fill="none" stroke="#757575" d="M785.056,-222.342C739.863,-206.944 661.648,-180.27 661.347,-180 650.552,-170.347 614.834,-88.5497 596.468,-45.4059"/>
<polygon fill="#757575" stroke="#757575" points="599.639,-43.919 592.512,-36.0799 593.195,-46.6527 599.639,-43.919"/>
</g>
<!-- src/predicate -->
<g id="node3" class="node"><title>src/predicate</title>
<ellipse fill="none" stroke="#c6c5fe" cx="509.347" cy="-162" rx="64.189" ry="18"/>
<text text-anchor="middle" x="509.347" y="-158.3" font-family="Arial" font-size="14.00" fill="#c6c5fe">src/predicate</text>
</g>
<!-- src/and&#45;&gt;src/predicate -->
<g id="edge2" class="edge"><title>src/and&#45;&gt;src/predicate</title>
<path fill="none" stroke="#757575" d="M785.859,-221.963C779.459,-219.835 772.717,-217.733 766.347,-216 701.231,-198.29 625.427,-183.33 573.104,-173.868"/>
<polygon fill="#757575" stroke="#757575" points="573.423,-170.369 562.962,-172.049 572.188,-177.259 573.423,-170.369"/>
</g>
<!-- src/predicate&#45;&gt;node_modules/stringify&#45;anything/src/index -->
<g id="edge27" class="edge"><title>src/predicate&#45;&gt;node_modules/stringify&#45;anything/src/index</title>
<path fill="none" stroke="#757575" d="M523.014,-143.971C530.737,-133.878 540.237,-120.628 547.347,-108 558.63,-87.9587 568.712,-63.9016 575.651,-45.8545"/>
<polygon fill="#757575" stroke="#757575" points="579.017,-46.847 579.265,-36.255 572.466,-44.381 579.017,-46.847"/>
</g>
<!-- src/spec&#45;options&#45;predicate -->
<g id="node17" class="node"><title>src/spec&#45;options&#45;predicate</title>
<ellipse fill="none" stroke="#c6c5fe" cx="417.347" cy="-90" rx="120.779" ry="18"/>
<text text-anchor="middle" x="417.347" y="-86.3" font-family="Arial" font-size="14.00" fill="#c6c5fe">src/spec&#45;options&#45;predicate</text>
</g>
<!-- src/predicate&#45;&gt;src/spec&#45;options&#45;predicate -->
<g id="edge28" class="edge"><title>src/predicate&#45;&gt;src/spec&#45;options&#45;predicate</title>
<path fill="none" stroke="#757575" d="M488.009,-144.765C476.078,-135.687 461.004,-124.218 447.847,-114.207"/>
<polygon fill="#757575" stroke="#757575" points="449.607,-111.148 439.529,-107.878 445.368,-116.719 449.607,-111.148"/>
</g>
<!-- src/equal -->
<g id="node4" class="node"><title>src/equal</title>
<ellipse fill="none" stroke="#c6c5fe" cx="923.347" cy="-234" rx="48.1917" ry="18"/>
<text text-anchor="middle" x="923.347" y="-230.3" font-family="Arial" font-size="14.00" fill="#c6c5fe">src/equal</text>
</g>
<!-- src/equal&#45;&gt;src/predicate -->
<g id="edge5" class="edge"><title>src/equal&#45;&gt;src/predicate</title>
<path fill="none" stroke="#757575" d="M887.977,-221.601C880.862,-219.549 873.403,-217.568 866.347,-216 767.528,-194.046 651.257,-178.694 578.915,-170.354"/>
<polygon fill="#757575" stroke="#757575" points="578.9,-166.83 568.568,-169.175 578.107,-173.785 578.9,-166.83"/>
</g>
<!-- node_modules/deep&#45;equal/index -->
<g id="node5" class="node"><title>node_modules/deep&#45;equal/index</title>
<ellipse fill="none" stroke="#cfffac" cx="816.347" cy="-162" rx="146.474" ry="18"/>
<text text-anchor="middle" x="816.347" y="-158.3" font-family="Arial" font-size="14.00" fill="#cfffac">node_modules/deep&#45;equal/index</text>
</g>
<!-- src/equal&#45;&gt;node_modules/deep&#45;equal/index -->
<g id="edge3" class="edge"><title>src/equal&#45;&gt;node_modules/deep&#45;equal/index</title>
<path fill="none" stroke="#757575" d="M900.392,-217.983C885.989,-208.56 867.143,-196.231 850.948,-185.636"/>
<polygon fill="#757575" stroke="#757575" points="852.553,-182.504 842.269,-179.958 848.721,-188.362 852.553,-182.504"/>
</g>
<!-- node_modules/type&#45;check/lib/index -->
<g id="node6" class="node"><title>node_modules/type&#45;check/lib/index</title>
<ellipse fill="none" stroke="#cfffac" cx="1136.35" cy="-162" rx="155.972" ry="18"/>
<text text-anchor="middle" x="1136.35" y="-158.3" font-family="Arial" font-size="14.00" fill="#cfffac">node_modules/type&#45;check/lib/index</text>
</g>
<!-- src/equal&#45;&gt;node_modules/type&#45;check/lib/index -->
<g id="edge4" class="edge"><title>src/equal&#45;&gt;node_modules/type&#45;check/lib/index</title>
<path fill="none" stroke="#757575" d="M958.519,-221.441C990.734,-210.854 1039.06,-194.971 1077.21,-182.434"/>
<polygon fill="#757575" stroke="#757575" points="1078.77,-185.607 1087.18,-179.16 1076.58,-178.957 1078.77,-185.607"/>
</g>
<!-- src/fail -->
<g id="node7" class="node"><title>src/fail</title>
<ellipse fill="none" stroke="#c6c5fe" cx="246.347" cy="-234" rx="37.8943" ry="18"/>
<text text-anchor="middle" x="246.347" y="-230.3" font-family="Arial" font-size="14.00" fill="#c6c5fe">src/fail</text>
</g>
<!-- src/fail&#45;&gt;src/predicate -->
<g id="edge6" class="edge"><title>src/fail&#45;&gt;src/predicate</title>
<path fill="none" stroke="#757575" d="M275.017,-222.082C281.033,-219.946 287.367,-217.809 293.347,-216 345.634,-200.178 406.1,-185.657 449.734,-175.831"/>
<polygon fill="#757575" stroke="#757575" points="450.618,-179.22 459.613,-173.622 449.09,-172.388 450.618,-179.22"/>
</g>
<!-- src/falsey -->
<g id="node8" class="node"><title>src/falsey</title>
<ellipse fill="none" stroke="#c6c5fe" cx="352.347" cy="-234" rx="50.0912" ry="18"/>
<text text-anchor="middle" x="352.347" y="-230.3" font-family="Arial" font-size="14.00" fill="#c6c5fe">src/falsey</text>
</g>
<!-- src/falsey&#45;&gt;src/predicate -->
<g id="edge7" class="edge"><title>src/falsey&#45;&gt;src/predicate</title>
<path fill="none" stroke="#757575" d="M382.618,-219.503C406.664,-208.782 440.568,-193.666 467.258,-181.766"/>
<polygon fill="#757575" stroke="#757575" points="469.025,-184.81 476.733,-177.541 466.174,-178.417 469.025,-184.81"/>
</g>
<!-- src/fold -->
<g id="node9" class="node"><title>src/fold</title>
<ellipse fill="none" stroke="#c6c5fe" cx="1136.35" cy="-234" rx="41.6928" ry="18"/>
<text text-anchor="middle" x="1136.35" y="-230.3" font-family="Arial" font-size="14.00" fill="#c6c5fe">src/fold</text>
</g>
<!-- src/fold&#45;&gt;node_modules/type&#45;check/lib/index -->
<g id="edge8" class="edge"><title>src/fold&#45;&gt;node_modules/type&#45;check/lib/index</title>
<path fill="none" stroke="#757575" d="M1136.35,-215.697C1136.35,-207.983 1136.35,-198.712 1136.35,-190.112"/>
<polygon fill="#757575" stroke="#757575" points="1139.85,-190.104 1136.35,-180.104 1132.85,-190.104 1139.85,-190.104"/>
</g>
<!-- src/index -->
<g id="node10" class="node"><title>src/index</title>
<ellipse fill="none" stroke="#c6c5fe" cx="566.347" cy="-306" rx="48.1917" ry="18"/>
<text text-anchor="middle" x="566.347" y="-302.3" font-family="Arial" font-size="14.00" fill="#c6c5fe">src/index</text>
</g>
<!-- src/index&#45;&gt;src/and -->
<g id="edge9" class="edge"><title>src/index&#45;&gt;src/and</title>
<path fill="none" stroke="#757575" d="M605.66,-295.431C646.154,-285.376 710.986,-268.725 766.347,-252 769.462,-251.059 772.675,-250.052 775.899,-249.015"/>
<polygon fill="#757575" stroke="#757575" points="777.108,-252.302 785.514,-245.853 774.921,-245.652 777.108,-252.302"/>
</g>
<!-- src/index&#45;&gt;src/predicate -->
<g id="edge18" class="edge"><title>src/index&#45;&gt;src/predicate</title>
<path fill="none" stroke="#757575" d="M523.575,-297.628C497.305,-290.656 465.661,-277.3 449.347,-252 440.676,-238.553 442.769,-230.586 449.347,-216 454.847,-203.803 464.694,-193.285 474.843,-184.907"/>
<polygon fill="#757575" stroke="#757575" points="477.176,-187.528 482.968,-178.657 472.908,-181.98 477.176,-187.528"/>
</g>
<!-- src/index&#45;&gt;src/equal -->
<g id="edge10" class="edge"><title>src/index&#45;&gt;src/equal</title>
<path fill="none" stroke="#757575" d="M610.643,-298.804C669.465,-290.206 776.405,-273.283 866.347,-252 870.194,-251.09 874.164,-250.072 878.136,-248.998"/>
<polygon fill="#757575" stroke="#757575" points="879.259,-252.318 887.941,-246.246 877.368,-245.579 879.259,-252.318"/>
</g>
<!-- src/index&#45;&gt;src/fail -->
<g id="edge11" class="edge"><title>src/index&#45;&gt;src/fail</title>
<path fill="none" stroke="#757575" d="M522.363,-298.619C468.002,-290.24 372.929,-273.974 293.347,-252 290.43,-251.195 287.435,-250.293 284.438,-249.337"/>
<polygon fill="#757575" stroke="#757575" points="285.545,-246.016 274.951,-246.145 283.313,-252.651 285.545,-246.016"/>
</g>
<!-- src/index&#45;&gt;src/falsey -->
<g id="edge12" class="edge"><title>src/index&#45;&gt;src/falsey</title>
<path fill="none" stroke="#757575" d="M531.488,-293.597C495.052,-281.679 437.728,-262.928 397.771,-249.858"/>
<polygon fill="#757575" stroke="#757575" points="398.855,-246.531 388.262,-246.748 396.679,-253.184 398.855,-246.531"/>
</g>
<!-- src/index&#45;&gt;src/fold -->
<g id="edge13" class="edge"><title>src/index&#45;&gt;src/fold</title>
<path fill="none" stroke="#757575" d="M614.233,-303.729C706.569,-300.486 915.227,-289.306 1086.35,-252 1089.72,-251.265 1093.18,-250.378 1096.63,-249.401"/>
<polygon fill="#757575" stroke="#757575" points="1097.71,-252.73 1106.25,-246.456 1095.66,-246.037 1097.71,-252.73"/>
</g>
<!-- src/match -->
<g id="node11" class="node"><title>src/match</title>
<ellipse fill="none" stroke="#c6c5fe" cx="509.347" cy="-234" rx="50.8918" ry="18"/>
<text text-anchor="middle" x="509.347" y="-230.3" font-family="Arial" font-size="14.00" fill="#c6c5fe">src/match</text>
</g>
<!-- src/index&#45;&gt;src/match -->
<g id="edge14" class="edge"><title>src/index&#45;&gt;src/match</title>
<path fill="none" stroke="#757575" d="M552.838,-288.411C545.811,-279.781 537.083,-269.062 529.294,-259.497"/>
<polygon fill="#757575" stroke="#757575" points="531.786,-257.014 522.758,-251.47 526.358,-261.434 531.786,-257.014"/>
</g>
<!-- src/not -->
<g id="node12" class="node"><title>src/not</title>
<ellipse fill="none" stroke="#c6c5fe" cx="38.3466" cy="-234" rx="38.1938" ry="18"/>
<text text-anchor="middle" x="38.3466" y="-230.3" font-family="Arial" font-size="14.00" fill="#c6c5fe">src/not</text>
</g>
<!-- src/index&#45;&gt;src/not -->
<g id="edge15" class="edge"><title>src/index&#45;&gt;src/not</title>
<path fill="none" stroke="#757575" d="M518.61,-303.483C431.468,-299.892 241.234,-288.237 85.3466,-252 82.3172,-251.296 79.2147,-250.455 76.119,-249.531"/>
<polygon fill="#757575" stroke="#757575" points="76.9443,-246.119 66.3521,-246.355 74.7797,-252.776 76.9443,-246.119"/>
</g>
<!-- src/or -->
<g id="node13" class="node"><title>src/or</title>
<ellipse fill="none" stroke="#c6c5fe" cx="723.347" cy="-234" rx="34.394" ry="18"/>
<text text-anchor="middle" x="723.347" y="-230.3" font-family="Arial" font-size="14.00" fill="#c6c5fe">src/or</text>
</g>
<!-- src/index&#45;&gt;src/or -->
<g id="edge16" class="edge"><title>src/index&#45;&gt;src/or</title>
<path fill="none" stroke="#757575" d="M596.247,-291.669C622.589,-279.924 660.97,-262.811 688.656,-250.467"/>
<polygon fill="#757575" stroke="#757575" points="690.258,-253.585 697.966,-246.316 687.407,-247.192 690.258,-253.585"/>
</g>
<!-- src/pass -->
<g id="node14" class="node"><title>src/pass</title>
<ellipse fill="none" stroke="#c6c5fe" cx="624.347" cy="-234" rx="46.2923" ry="18"/>
<text text-anchor="middle" x="624.347" y="-230.3" font-family="Arial" font-size="14.00" fill="#c6c5fe">src/pass</text>
</g>
<!-- src/index&#45;&gt;src/pass -->
<g id="edge17" class="edge"><title>src/index&#45;&gt;src/pass</title>
<path fill="none" stroke="#757575" d="M580.092,-288.411C587.315,-279.693 596.303,-268.845 604.289,-259.208"/>
<polygon fill="#757575" stroke="#757575" points="607.015,-261.403 610.7,-251.47 601.625,-256.937 607.015,-261.403"/>
</g>
<!-- src/truthy -->
<g id="node15" class="node"><title>src/truthy</title>
<ellipse fill="none" stroke="#c6c5fe" cx="142.347" cy="-234" rx="48.1917" ry="18"/>
<text text-anchor="middle" x="142.347" y="-230.3" font-family="Arial" font-size="14.00" fill="#c6c5fe">src/truthy</text>
</g>
<!-- src/index&#45;&gt;src/truthy -->
<g id="edge19" class="edge"><title>src/index&#45;&gt;src/truthy</title>
<path fill="none" stroke="#757575" d="M520.474,-300.558C450.616,-293.303 313.616,-277.149 199.347,-252 195.431,-251.138 191.391,-250.147 187.356,-249.085"/>
<polygon fill="#757575" stroke="#757575" points="187.978,-245.625 177.407,-246.333 186.112,-252.372 187.978,-245.625"/>
</g>
<!-- src/type -->
<g id="node16" class="node"><title>src/type</title>
<ellipse fill="none" stroke="#c6c5fe" cx="1033.35" cy="-234" rx="43.5923" ry="18"/>
<text text-anchor="middle" x="1033.35" y="-230.3" font-family="Arial" font-size="14.00" fill="#c6c5fe">src/type</text>
</g>
<!-- src/index&#45;&gt;src/type -->
<g id="edge20" class="edge"><title>src/index&#45;&gt;src/type</title>
<path fill="none" stroke="#757575" d="M613.394,-301.795C690.704,-295.902 849.137,-281.184 980.347,-252 984.005,-251.186 987.771,-250.229 991.528,-249.19"/>
<polygon fill="#757575" stroke="#757575" points="992.768,-252.474 1001.37,-246.293 990.792,-245.759 992.768,-252.474"/>
</g>
<!-- src/match&#45;&gt;src/predicate -->
<g id="edge21" class="edge"><title>src/match&#45;&gt;src/predicate</title>
<path fill="none" stroke="#757575" d="M509.347,-215.697C509.347,-207.983 509.347,-198.712 509.347,-190.112"/>
<polygon fill="#757575" stroke="#757575" points="512.847,-190.104 509.347,-180.104 505.847,-190.104 512.847,-190.104"/>
</g>
<!-- src/not&#45;&gt;node_modules/stringify&#45;anything/src/index -->
<g id="edge22" class="edge"><title>src/not&#45;&gt;node_modules/stringify&#45;anything/src/index</title>
<path fill="none" stroke="#757575" d="M55.9984,-217.946C94.9266,-185.611 192.262,-109.427 287.347,-72 337.083,-52.4227 394.343,-40.0355 445.295,-32.2154"/>
<polygon fill="#757575" stroke="#757575" points="446.022,-35.6459 455.397,-30.7115 444.991,-28.7222 446.022,-35.6459"/>
</g>
<!-- src/not&#45;&gt;src/predicate -->
<g id="edge23" class="edge"><title>src/not&#45;&gt;src/predicate</title>
<path fill="none" stroke="#757575" d="M66.8698,-221.539C72.8964,-219.442 79.2718,-217.459 85.3466,-216 206.648,-186.867 351.544,-173.138 436.695,-167.147"/>
<polygon fill="#757575" stroke="#757575" points="437.04,-170.632 446.777,-166.455 436.561,-163.649 437.04,-170.632"/>
</g>
<!-- src/or&#45;&gt;node_modules/stringify&#45;anything/src/index -->
<g id="edge24" class="edge"><title>src/or&#45;&gt;node_modules/stringify&#45;anything/src/index</title>
<path fill="none" stroke="#757575" d="M698.128,-221.693C673.29,-210.089 637.743,-192.072 628.347,-180 597.638,-140.551 588.794,-81.003 586.289,-46.4633"/>
<polygon fill="#757575" stroke="#757575" points="589.766,-45.96 585.679,-36.1851 582.778,-46.375 589.766,-45.96"/>
</g>
<!-- src/or&#45;&gt;src/predicate -->
<g id="edge25" class="edge"><title>src/or&#45;&gt;src/predicate</title>
<path fill="none" stroke="#757575" d="M696.459,-222.286C690.83,-220.135 684.914,-217.941 679.347,-216 640.29,-202.384 595.624,-188.523 561.879,-178.393"/>
<polygon fill="#757575" stroke="#757575" points="562.805,-175.017 552.221,-175.506 560.8,-181.724 562.805,-175.017"/>
</g>
<!-- src/pass&#45;&gt;src/predicate -->
<g id="edge26" class="edge"><title>src/pass&#45;&gt;src/predicate</title>
<path fill="none" stroke="#757575" d="M600.519,-218.496C584.123,-208.516 562.087,-195.103 543.786,-183.963"/>
<polygon fill="#757575" stroke="#757575" points="545.505,-180.912 535.144,-178.703 541.866,-186.892 545.505,-180.912"/>
</g>
<!-- src/truthy&#45;&gt;src/predicate -->
<g id="edge31" class="edge"><title>src/truthy&#45;&gt;src/predicate</title>
<path fill="none" stroke="#757575" d="M177.745,-221.723C184.856,-219.662 192.308,-217.645 199.347,-216 282.321,-196.608 379.337,-181.163 442.438,-172.059"/>
<polygon fill="#757575" stroke="#757575" points="443.249,-175.479 452.653,-170.598 442.258,-168.549 443.249,-175.479"/>
</g>
<!-- src/type&#45;&gt;src/predicate -->
<g id="edge33" class="edge"><title>src/type&#45;&gt;src/predicate</title>
<path fill="none" stroke="#757575" d="M1001.39,-221.626C994.517,-219.497 987.244,-217.479 980.347,-216 977.908,-215.477 708.69,-185.311 578.422,-170.729"/>
<polygon fill="#757575" stroke="#757575" points="578.48,-167.214 568.153,-169.58 577.701,-174.17 578.48,-167.214"/>
</g>
<!-- src/type&#45;&gt;node_modules/type&#45;check/lib/index -->
<g id="edge32" class="edge"><title>src/type&#45;&gt;node_modules/type&#45;check/lib/index</title>
<path fill="none" stroke="#757575" d="M1055.19,-218.155C1069.14,-208.673 1087.5,-196.199 1103.22,-185.512"/>
<polygon fill="#757575" stroke="#757575" points="1105.34,-188.305 1111.64,-179.789 1101.4,-182.515 1105.34,-188.305"/>
</g>
<!-- src/spec&#45;options&#45;predicate&#45;&gt;node_modules/stringify&#45;anything/src/index -->
<g id="edge30" class="edge"><title>src/spec&#45;options&#45;predicate&#45;&gt;node_modules/stringify&#45;anything/src/index</title>
<path fill="none" stroke="#757575" d="M456.311,-72.7646C480.034,-62.8803 510.56,-50.1611 535.965,-39.5756"/>
<polygon fill="#757575" stroke="#757575" points="537.542,-42.7104 545.426,-35.6334 534.849,-36.2488 537.542,-42.7104"/>
</g>
<!-- node_modules/specifier/src/index -->
<g id="node18" class="node"><title>node_modules/specifier/src/index</title>
<ellipse fill="none" stroke="#cfffac" cx="234.347" cy="-18" rx="150.273" ry="18"/>
<text text-anchor="middle" x="234.347" y="-14.3" font-family="Arial" font-size="14.00" fill="#cfffac">node_modules/specifier/src/index</text>
</g>
<!-- src/spec&#45;options&#45;predicate&#45;&gt;node_modules/specifier/src/index -->
<g id="edge29" class="edge"><title>src/spec&#45;options&#45;predicate&#45;&gt;node_modules/specifier/src/index</title>
<path fill="none" stroke="#757575" d="M375.363,-72.9406C349.027,-62.8668 314.859,-49.7972 286.753,-39.0461"/>
<polygon fill="#757575" stroke="#757575" points="287.677,-35.6525 277.087,-35.3487 285.176,-42.1905 287.677,-35.6525"/>
</g>
</g>
</svg>
