<?xml version="1.0" encoding="UTF-8" standalone="no"?>
<!DOCTYPE svg PUBLIC "-//W3C//DTD SVG 1.1//EN"
 "http://www.w3.org/Graphics/SVG/1.1/DTD/svg11.dtd">
<!-- Generated by graphviz version 2.38.0 (20140413.2041)
 -->
<!-- Title: G Pages: 1 -->
<svg width="3968pt" height="124pt"
 viewBox="0.00 0.00 3968.00 123.98" xmlns="http://www.w3.org/2000/svg" xmlns:xlink="http://www.w3.org/1999/xlink">
<g id="graph0" class="graph" transform="scale(1 1) rotate(0) translate(7.992 115.992)">
<title>G</title>
<polygon fill="#000000" stroke="none" points="-7.992,7.992 -7.992,-115.992 3960.01,-115.992 3960.01,7.992 -7.992,7.992"/>
<!-- index.js -->
<g id="node1" class="node"><title>index.js</title>
<ellipse fill="none" stroke="#c6c5fe" cx="1954.14" cy="-90" rx="42.4939" ry="18"/>
<text text-anchor="middle" x="1954.14" y="-86.3" font-family="Arial" font-size="14.00" fill="#c6c5fe">index.js</text>
</g>
<!-- ../node_modules/deep&#45;equal/index.js -->
<g id="node2" class="node"><title>../node_modules/deep&#45;equal/index.js</title>
<ellipse fill="none" stroke="#cfffac" cx="163.136" cy="-18" rx="163.271" ry="18"/>
<text text-anchor="middle" x="163.136" y="-14.3" font-family="Arial" font-size="14.00" fill="#cfffac">../node_modules/deep&#45;equal/index.js</text>
</g>
<!-- index.js&#45;&gt;../node_modules/deep&#45;equal/index.js -->
<g id="edge1" class="edge"><title>index.js&#45;&gt;../node_modules/deep&#45;equal/index.js</title>
<path fill="none" stroke="#757575" d="M1911.87,-88.6381C1725.83,-86.8297 961.273,-77.1468 335.136,-36 319.018,-34.9409 302.074,-33.5755 285.364,-32.0796"/>
<polygon fill="#757575" stroke="#757575" points="285.276,-28.557 274.999,-31.1328 284.639,-35.528 285.276,-28.557"/>
</g>
<!-- ../node_modules/fun&#45;apply/src/index.js -->
<g id="node3" class="node"><title>../node_modules/fun&#45;apply/src/index.js</title>
<ellipse fill="none" stroke="#cfffac" cx="513.136" cy="-18" rx="168.97" ry="18"/>
<text text-anchor="middle" x="513.136" y="-14.3" font-family="Arial" font-size="14.00" fill="#cfffac">../node_modules/fun&#45;apply/src/index.js</text>
</g>
<!-- index.js&#45;&gt;../node_modules/fun&#45;apply/src/index.js -->
<g id="edge2" class="edge"><title>index.js&#45;&gt;../node_modules/fun&#45;apply/src/index.js</title>
<path fill="none" stroke="#757575" d="M1912.12,-88.0497C1752.71,-84.2718 1170.08,-68.8969 691.136,-36 674.566,-34.8619 657.149,-33.4571 639.96,-31.9467"/>
<polygon fill="#757575" stroke="#757575" points="640.147,-28.4494 629.875,-31.0463 639.524,-35.4217 640.147,-28.4494"/>
</g>
<!-- ../node_modules/fun&#45;array/src/index.js -->
<g id="node4" class="node"><title>../node_modules/fun&#45;array/src/index.js</title>
<ellipse fill="none" stroke="#cfffac" cx="867.136" cy="-18" rx="167.07" ry="18"/>
<text text-anchor="middle" x="867.136" y="-14.3" font-family="Arial" font-size="14.00" fill="#cfffac">../node_modules/fun&#45;array/src/index.js</text>
</g>
<!-- index.js&#45;&gt;../node_modules/fun&#45;array/src/index.js -->
<g id="edge3" class="edge"><title>index.js&#45;&gt;../node_modules/fun&#45;array/src/index.js</title>
<path fill="none" stroke="#757575" d="M1912.33,-87.1369C1783,-81.2514 1378,-61.9038 1043.14,-36 1027.29,-34.7746 1010.66,-33.3498 994.212,-31.8563"/>
<polygon fill="#757575" stroke="#757575" points="994.278,-28.3477 984,-30.9187 993.638,-35.3184 994.278,-28.3477"/>
</g>
<!-- ../node_modules/fun&#45;boolean/src/index.js -->
<g id="node5" class="node"><title>../node_modules/fun&#45;boolean/src/index.js</title>
<ellipse fill="none" stroke="#cfffac" cx="1232.14" cy="-18" rx="180.068" ry="18"/>
<text text-anchor="middle" x="1232.14" y="-14.3" font-family="Arial" font-size="14.00" fill="#cfffac">../node_modules/fun&#45;boolean/src/index.js</text>
</g>
<!-- index.js&#45;&gt;../node_modules/fun&#45;boolean/src/index.js -->
<g id="edge4" class="edge"><title>index.js&#45;&gt;../node_modules/fun&#45;boolean/src/index.js</title>
<path fill="none" stroke="#757575" d="M1913.51,-85.0613C1810.18,-75.0432 1533.72,-48.2394 1366.41,-32.0184"/>
<polygon fill="#757575" stroke="#757575" points="1366.59,-28.5192 1356.3,-31.0378 1365.91,-35.4865 1366.59,-28.5192"/>
</g>
<!-- ../node_modules/fun&#45;curry/src/index.js -->
<g id="node6" class="node"><title>../node_modules/fun&#45;curry/src/index.js</title>
<ellipse fill="none" stroke="#cfffac" cx="1597.14" cy="-18" rx="167.07" ry="18"/>
<text text-anchor="middle" x="1597.14" y="-14.3" font-family="Arial" font-size="14.00" fill="#cfffac">../node_modules/fun&#45;curry/src/index.js</text>
</g>
<!-- index.js&#45;&gt;../node_modules/fun&#45;curry/src/index.js -->
<g id="edge5" class="edge"><title>index.js&#45;&gt;../node_modules/fun&#45;curry/src/index.js</title>
<path fill="none" stroke="#757575" d="M1916.61,-81.6411C1861.69,-70.8743 1757.92,-50.5262 1683.53,-35.9409"/>
<polygon fill="#757575" stroke="#757575" points="1684.19,-32.5022 1673.7,-34.0126 1682.84,-39.3714 1684.19,-32.5022"/>
</g>
<!-- ../node_modules/fun&#45;object/src/index.js -->
<g id="node7" class="node"><title>../node_modules/fun&#45;object/src/index.js</title>
<ellipse fill="none" stroke="#cfffac" cx="1954.14" cy="-18" rx="172.47" ry="18"/>
<text text-anchor="middle" x="1954.14" y="-14.3" font-family="Arial" font-size="14.00" fill="#cfffac">../node_modules/fun&#45;object/src/index.js</text>
</g>
<!-- index.js&#45;&gt;../node_modules/fun&#45;object/src/index.js -->
<g id="edge6" class="edge"><title>index.js&#45;&gt;../node_modules/fun&#45;object/src/index.js</title>
<path fill="none" stroke="#757575" d="M1954.14,-71.6966C1954.14,-63.9827 1954.14,-54.7125 1954.14,-46.1124"/>
<polygon fill="#757575" stroke="#757575" points="1957.64,-46.1043 1954.14,-36.1043 1950.64,-46.1044 1957.64,-46.1043"/>
</g>
<!-- ../node_modules/fun&#45;type/src/index.js -->
<g id="node8" class="node"><title>../node_modules/fun&#45;type/src/index.js</title>
<ellipse fill="none" stroke="#cfffac" cx="2309.14" cy="-18" rx="164.371" ry="18"/>
<text text-anchor="middle" x="2309.14" y="-14.3" font-family="Arial" font-size="14.00" fill="#cfffac">../node_modules/fun&#45;type/src/index.js</text>
</g>
<!-- index.js&#45;&gt;../node_modules/fun&#45;type/src/index.js -->
<g id="edge7" class="edge"><title>index.js&#45;&gt;../node_modules/fun&#45;type/src/index.js</title>
<path fill="none" stroke="#757575" d="M1991.79,-81.575C2046.41,-70.8045 2149.15,-50.546 2222.95,-35.9943"/>
<polygon fill="#757575" stroke="#757575" points="2224.03,-39.349 2233.16,-33.9804 2222.68,-32.4812 2224.03,-39.349"/>
</g>
<!-- ../node_modules/guarded/src/index.js -->
<g id="node9" class="node"><title>../node_modules/guarded/src/index.js</title>
<ellipse fill="none" stroke="#cfffac" cx="2657.14" cy="-18" rx="165.171" ry="18"/>
<text text-anchor="middle" x="2657.14" y="-14.3" font-family="Arial" font-size="14.00" fill="#cfffac">../node_modules/guarded/src/index.js</text>
</g>
<!-- index.js&#45;&gt;../node_modules/guarded/src/index.js -->
<g id="edge8" class="edge"><title>index.js&#45;&gt;../node_modules/guarded/src/index.js</title>
<path fill="none" stroke="#757575" d="M1994.71,-84.9595C2096.82,-74.7929 2367.77,-47.8135 2529.76,-31.6832"/>
<polygon fill="#757575" stroke="#757575" points="2530.19,-35.1582 2539.79,-30.6845 2529.49,-28.1927 2530.19,-35.1582"/>
</g>
<!-- ../node_modules/set&#45;prop/src/index.js -->
<g id="node10" class="node"><title>../node_modules/set&#45;prop/src/index.js</title>
<ellipse fill="none" stroke="#cfffac" cx="3006.14" cy="-18" rx="165.971" ry="18"/>
<text text-anchor="middle" x="3006.14" y="-14.3" font-family="Arial" font-size="14.00" fill="#cfffac">../node_modules/set&#45;prop/src/index.js</text>
</g>
<!-- index.js&#45;&gt;../node_modules/set&#45;prop/src/index.js -->
<g id="edge9" class="edge"><title>index.js&#45;&gt;../node_modules/set&#45;prop/src/index.js</title>
<path fill="none" stroke="#757575" d="M1996.16,-87.0053C2122.56,-80.8892 2510.28,-61.2711 2831.14,-36 2846.89,-34.7595 2863.42,-33.3257 2879.78,-31.8275"/>
<polygon fill="#757575" stroke="#757575" points="2880.3,-35.2944 2889.93,-30.8874 2879.65,-28.3242 2880.3,-35.2944"/>
</g>
<!-- ../node_modules/stringify&#45;anything/src/index.js -->
<g id="node11" class="node"><title>../node_modules/stringify&#45;anything/src/index.js</title>
<ellipse fill="none" stroke="#cfffac" cx="3389.14" cy="-18" rx="199.565" ry="18"/>
<text text-anchor="middle" x="3389.14" y="-14.3" font-family="Arial" font-size="14.00" fill="#cfffac">../node_modules/stringify&#45;anything/src/index.js</text>
</g>
<!-- index.js&#45;&gt;../node_modules/stringify&#45;anything/src/index.js -->
<g id="edge10" class="edge"><title>index.js&#45;&gt;../node_modules/stringify&#45;anything/src/index.js</title>
<path fill="none" stroke="#757575" d="M1996.28,-87.7662C2152.99,-83.0536 2716.95,-64.9833 3181.14,-36 3200.55,-34.788 3220.96,-33.3367 3241.11,-31.7999"/>
<polygon fill="#757575" stroke="#757575" points="3241.59,-35.2733 3251.29,-31.0144 3241.05,-28.2941 3241.59,-35.2733"/>
</g>
<!-- ../node_modules/type&#45;check/lib/index.js -->
<g id="node12" class="node"><title>../node_modules/type&#45;check/lib/index.js</title>
<ellipse fill="none" stroke="#cfffac" cx="3779.14" cy="-18" rx="172.769" ry="18"/>
<text text-anchor="middle" x="3779.14" y="-14.3" font-family="Arial" font-size="14.00" fill="#cfffac">../node_modules/type&#45;check/lib/index.js</text>
</g>
<!-- index.js&#45;&gt;../node_modules/type&#45;check/lib/index.js -->
<g id="edge11" class="edge"><title>index.js&#45;&gt;../node_modules/type&#45;check/lib/index.js</title>
<path fill="none" stroke="#757575" d="M1996.41,-88.5918C2184.2,-86.5779 2961.52,-76.1202 3598.14,-36 3615.12,-34.9297 3632.98,-33.5561 3650.59,-32.0545"/>
<polygon fill="#757575" stroke="#757575" points="3651.26,-35.5093 3660.92,-31.1569 3650.66,-28.5355 3651.26,-35.5093"/>
</g>
</g>
</svg>
