<?xml version="1.0" encoding="UTF-8" standalone="no"?>
<!DOCTYPE svg PUBLIC "-//W3C//DTD SVG 1.1//EN"
 "http://www.w3.org/Graphics/SVG/1.1/DTD/svg11.dtd">
<!-- Generated by graphviz version 2.38.0 (20140413.2041)
 -->
<!-- Title: G Pages: 1 -->
<svg width="1417pt" height="412pt"
 viewBox="0.00 0.00 1416.51 411.98" xmlns="http://www.w3.org/2000/svg" xmlns:xlink="http://www.w3.org/1999/xlink">
<g id="graph0" class="graph" transform="scale(1 1) rotate(0) translate(7.992 403.992)">
<title>G</title>
<polygon fill="#000000" stroke="none" points="-7.992,7.992 -7.992,-403.992 1408.51,-403.992 1408.51,7.992 -7.992,7.992"/>
<!-- equal&#45;deep -->
<g id="node1" class="node"><title>equal&#45;deep</title>
<ellipse fill="none" stroke="#c6c5fe" cx="153.386" cy="-306" rx="57.6901" ry="18"/>
<text text-anchor="middle" x="153.386" y="-302.3" font-family="Arial" font-size="14.00" fill="#c6c5fe">equal&#45;deep</text>
</g>
<!-- ../node_modules/deep&#45;equal/index -->
<g id="node2" class="node"><title>../node_modules/deep&#45;equal/index</title>
<ellipse fill="none" stroke="#cfffac" cx="153.386" cy="-234" rx="153.273" ry="18"/>
<text text-anchor="middle" x="153.386" y="-230.3" font-family="Arial" font-size="14.00" fill="#cfffac">../node_modules/deep&#45;equal/index</text>
</g>
<!-- equal&#45;deep&#45;&gt;../node_modules/deep&#45;equal/index -->
<g id="edge1" class="edge"><title>equal&#45;deep&#45;&gt;../node_modules/deep&#45;equal/index</title>
<path fill="none" stroke="#757575" d="M153.386,-287.697C153.386,-279.983 153.386,-270.712 153.386,-262.112"/>
<polygon fill="#757575" stroke="#757575" points="156.886,-262.104 153.386,-252.104 149.886,-262.104 156.886,-262.104"/>
</g>
<!-- equal -->
<g id="node3" class="node"><title>equal</title>
<ellipse fill="none" stroke="#cfffac" cx="262.386" cy="-306" rx="33.2948" ry="18"/>
<text text-anchor="middle" x="262.386" y="-302.3" font-family="Arial" font-size="14.00" fill="#cfffac">equal</text>
</g>
<!-- if&#45;then&#45;else -->
<g id="node4" class="node"><title>if&#45;then&#45;else</title>
<ellipse fill="none" stroke="#cfffac" cx="370.386" cy="-306" rx="56.59" ry="18"/>
<text text-anchor="middle" x="370.386" y="-302.3" font-family="Arial" font-size="14.00" fill="#cfffac">if&#45;then&#45;else</text>
</g>
<!-- index -->
<g id="node5" class="node"><title>index</title>
<ellipse fill="none" stroke="#c6c5fe" cx="641.386" cy="-378" rx="32.4942" ry="18"/>
<text text-anchor="middle" x="641.386" y="-374.3" font-family="Arial" font-size="14.00" fill="#c6c5fe">index</text>
</g>
<!-- index&#45;&gt;equal&#45;deep -->
<g id="edge2" class="edge"><title>index&#45;&gt;equal&#45;deep</title>
<path fill="none" stroke="#757575" d="M609.49,-374.338C538.927,-368.154 364.432,-351.234 220.386,-324 215.428,-323.063 210.292,-321.975 205.169,-320.811"/>
<polygon fill="#757575" stroke="#757575" points="205.921,-317.392 195.384,-318.498 204.311,-324.204 205.921,-317.392"/>
</g>
<!-- index&#45;&gt;equal -->
<g id="edge3" class="edge"><title>index&#45;&gt;equal</title>
<path fill="none" stroke="#757575" d="M609.277,-374.412C548.742,-368.994 413.972,-354.364 304.386,-324 301.932,-323.32 299.427,-322.54 296.923,-321.696"/>
<polygon fill="#757575" stroke="#757575" points="297.975,-318.354 287.381,-318.203 295.568,-324.928 297.975,-318.354"/>
</g>
<!-- index&#45;&gt;if&#45;then&#45;else -->
<g id="edge4" class="edge"><title>index&#45;&gt;if&#45;then&#45;else</title>
<path fill="none" stroke="#757575" d="M612.379,-369.576C572.493,-359.358 498.477,-340.366 435.386,-324 431.258,-322.929 426.983,-321.817 422.688,-320.698"/>
<polygon fill="#757575" stroke="#757575" points="423.247,-317.227 412.687,-318.089 421.48,-324 423.247,-317.227"/>
</g>
<!-- lib/boolean -->
<g id="node6" class="node"><title>lib/boolean</title>
<ellipse fill="none" stroke="#cfffac" cx="500.386" cy="-306" rx="55.7903" ry="18"/>
<text text-anchor="middle" x="500.386" y="-302.3" font-family="Arial" font-size="14.00" fill="#cfffac">lib/boolean</text>
</g>
<!-- index&#45;&gt;lib/boolean -->
<g id="edge5" class="edge"><title>index&#45;&gt;lib/boolean</title>
<path fill="none" stroke="#757575" d="M618.103,-365.441C596.507,-354.72 563.972,-338.567 538.575,-325.959"/>
<polygon fill="#757575" stroke="#757575" points="540.088,-322.803 529.575,-321.491 536.976,-329.072 540.088,-322.803"/>
</g>
<!-- lib/curry -->
<g id="node7" class="node"><title>lib/curry</title>
<ellipse fill="none" stroke="#c6c5fe" cx="590.386" cy="-234" rx="42.4939" ry="18"/>
<text text-anchor="middle" x="590.386" y="-230.3" font-family="Arial" font-size="14.00" fill="#c6c5fe">lib/curry</text>
</g>
<!-- index&#45;&gt;lib/curry -->
<g id="edge6" class="edge"><title>index&#45;&gt;lib/curry</title>
<path fill="none" stroke="#757575" d="M635.336,-360.153C626.556,-335.706 610.201,-290.171 599.827,-261.286"/>
<polygon fill="#757575" stroke="#757575" points="603.103,-260.053 596.429,-251.825 596.515,-262.419 603.103,-260.053"/>
</g>
<!-- lib/name&#45;function -->
<g id="node8" class="node"><title>lib/name&#45;function</title>
<ellipse fill="none" stroke="#c6c5fe" cx="512.386" cy="-162" rx="80.6858" ry="18"/>
<text text-anchor="middle" x="512.386" y="-158.3" font-family="Arial" font-size="14.00" fill="#c6c5fe">lib/name&#45;function</text>
</g>
<!-- index&#45;&gt;lib/name&#45;function -->
<g id="edge7" class="edge"><title>index&#45;&gt;lib/name&#45;function</title>
<path fill="none" stroke="#757575" d="M627.866,-361.143C601.628,-330.27 545.806,-264.051 539.386,-252 528.979,-232.463 521.975,-208.327 517.714,-190.121"/>
<polygon fill="#757575" stroke="#757575" points="521.09,-189.177 515.517,-180.166 514.254,-190.686 521.09,-189.177"/>
</g>
<!-- lib/set&#45;prop -->
<g id="node9" class="node"><title>lib/set&#45;prop</title>
<ellipse fill="none" stroke="#cfffac" cx="668.386" cy="-162" rx="57.3905" ry="18"/>
<text text-anchor="middle" x="668.386" y="-158.3" font-family="Arial" font-size="14.00" fill="#cfffac">lib/set&#45;prop</text>
</g>
<!-- index&#45;&gt;lib/set&#45;prop -->
<g id="edge8" class="edge"><title>index&#45;&gt;lib/set&#45;prop</title>
<path fill="none" stroke="#757575" d="M643.55,-359.849C648.221,-322.832 659.279,-235.181 664.931,-190.386"/>
<polygon fill="#757575" stroke="#757575" points="668.433,-190.592 666.212,-180.232 661.488,-189.716 668.433,-190.592"/>
</g>
<!-- match -->
<g id="node10" class="node"><title>match</title>
<ellipse fill="none" stroke="#cfffac" cx="874.386" cy="-306" rx="35.9954" ry="18"/>
<text text-anchor="middle" x="874.386" y="-302.3" font-family="Arial" font-size="14.00" fill="#cfffac">match</text>
</g>
<!-- index&#45;&gt;match -->
<g id="edge9" class="edge"><title>index&#45;&gt;match</title>
<path fill="none" stroke="#757575" d="M670.285,-369.683C707.396,-360.098 773.661,-342.343 829.386,-324 831.974,-323.148 834.634,-322.237 837.304,-321.296"/>
<polygon fill="#757575" stroke="#757575" points="838.708,-324.51 846.915,-317.809 836.32,-317.93 838.708,-324.51"/>
</g>
<!-- number/index -->
<g id="node11" class="node"><title>number/index</title>
<ellipse fill="none" stroke="#c6c5fe" cx="754.386" cy="-306" rx="66.0889" ry="18"/>
<text text-anchor="middle" x="754.386" y="-302.3" font-family="Arial" font-size="14.00" fill="#c6c5fe">number/index</text>
</g>
<!-- index&#45;&gt;number/index -->
<g id="edge10" class="edge"><title>index&#45;&gt;number/index</title>
<path fill="none" stroke="#757575" d="M662.376,-363.998C678.575,-353.963 701.324,-339.871 720.148,-328.21"/>
<polygon fill="#757575" stroke="#757575" points="722.097,-331.119 728.755,-322.878 718.411,-325.169 722.097,-331.119"/>
</g>
<!-- throws&#45;with -->
<g id="node12" class="node"><title>throws&#45;with</title>
<ellipse fill="none" stroke="#cfffac" cx="984.386" cy="-306" rx="55.7903" ry="18"/>
<text text-anchor="middle" x="984.386" y="-302.3" font-family="Arial" font-size="14.00" fill="#cfffac">throws&#45;with</text>
</g>
<!-- index&#45;&gt;throws&#45;with -->
<g id="edge11" class="edge"><title>index&#45;&gt;throws&#45;with</title>
<path fill="none" stroke="#757575" d="M671.967,-371.865C723.31,-363.089 830.004,-344.185 919.386,-324 923.98,-322.963 928.742,-321.83 933.504,-320.657"/>
<polygon fill="#757575" stroke="#757575" points="934.382,-324.045 943.226,-318.212 932.675,-317.257 934.382,-324.045"/>
</g>
<!-- truthy -->
<g id="node13" class="node"><title>truthy</title>
<ellipse fill="none" stroke="#cfffac" cx="1090.39" cy="-306" rx="32.4942" ry="18"/>
<text text-anchor="middle" x="1090.39" y="-302.3" font-family="Arial" font-size="14.00" fill="#cfffac">truthy</text>
</g>
<!-- index&#45;&gt;truthy -->
<g id="edge12" class="edge"><title>index&#45;&gt;truthy</title>
<path fill="none" stroke="#757575" d="M673.685,-375.694C743.406,-372.249 912.752,-360.511 1049.39,-324 1051.71,-323.379 1054.08,-322.657 1056.44,-321.867"/>
<polygon fill="#757575" stroke="#757575" points="1057.87,-325.072 1066.04,-318.328 1055.44,-318.505 1057.87,-325.072"/>
</g>
<!-- type -->
<g id="node14" class="node"><title>type</title>
<ellipse fill="none" stroke="#c6c5fe" cx="1203.39" cy="-306" rx="28.6953" ry="18"/>
<text text-anchor="middle" x="1203.39" y="-302.3" font-family="Arial" font-size="14.00" fill="#c6c5fe">type</text>
</g>
<!-- index&#45;&gt;type -->
<g id="edge13" class="edge"><title>index&#45;&gt;type</title>
<path fill="none" stroke="#757575" d="M673.683,-374.9C752.387,-369.48 960.186,-353.353 1131.39,-324 1143.33,-321.952 1156.25,-319.104 1167.81,-316.324"/>
<polygon fill="#757575" stroke="#757575" points="1168.68,-319.714 1177.55,-313.921 1167,-312.918 1168.68,-319.714"/>
</g>
<!-- lib/curry&#45;&gt;lib/name&#45;function -->
<g id="edge14" class="edge"><title>lib/curry&#45;&gt;lib/name&#45;function</title>
<path fill="none" stroke="#757575" d="M573.076,-217.465C562.938,-208.367 549.933,-196.696 538.565,-186.493"/>
<polygon fill="#757575" stroke="#757575" points="540.791,-183.788 531.01,-179.714 536.115,-188.998 540.791,-183.788"/>
</g>
<!-- lib/curry&#45;&gt;lib/set&#45;prop -->
<g id="edge15" class="edge"><title>lib/curry&#45;&gt;lib/set&#45;prop</title>
<path fill="none" stroke="#757575" d="M607.697,-217.465C617.981,-208.236 631.214,-196.36 642.698,-186.054"/>
<polygon fill="#757575" stroke="#757575" points="645.206,-188.506 650.311,-179.222 640.531,-183.296 645.206,-188.506"/>
</g>
<!-- lib/stringify -->
<g id="node15" class="node"><title>lib/stringify</title>
<ellipse fill="none" stroke="#c6c5fe" cx="512.386" cy="-90" rx="53.8905" ry="18"/>
<text text-anchor="middle" x="512.386" y="-86.3" font-family="Arial" font-size="14.00" fill="#c6c5fe">lib/stringify</text>
</g>
<!-- lib/name&#45;function&#45;&gt;lib/stringify -->
<g id="edge16" class="edge"><title>lib/name&#45;function&#45;&gt;lib/stringify</title>
<path fill="none" stroke="#757575" d="M512.386,-143.697C512.386,-135.983 512.386,-126.712 512.386,-118.112"/>
<polygon fill="#757575" stroke="#757575" points="515.886,-118.104 512.386,-108.104 508.886,-118.104 515.886,-118.104"/>
</g>
<!-- number/index&#45;&gt;lib/curry -->
<g id="edge18" class="edge"><title>number/index&#45;&gt;lib/curry</title>
<path fill="none" stroke="#757575" d="M720.405,-290.496C693.633,-279.069 656.316,-263.141 628.525,-251.279"/>
<polygon fill="#757575" stroke="#757575" points="629.696,-247.973 619.125,-247.266 626.948,-254.411 629.696,-247.973"/>
</g>
<!-- number/greater&#45;than -->
<g id="node17" class="node"><title>number/greater&#45;than</title>
<ellipse fill="none" stroke="#cfffac" cx="962.386" cy="-234" rx="93.6835" ry="18"/>
<text text-anchor="middle" x="962.386" y="-230.3" font-family="Arial" font-size="14.00" fill="#cfffac">number/greater&#45;than</text>
</g>
<!-- number/index&#45;&gt;number/greater&#45;than -->
<g id="edge19" class="edge"><title>number/index&#45;&gt;number/greater&#45;than</title>
<path fill="none" stroke="#757575" d="M794.491,-291.503C826.863,-280.609 872.72,-265.176 908.331,-253.192"/>
<polygon fill="#757575" stroke="#757575" points="909.723,-256.416 918.084,-249.909 907.49,-249.782 909.723,-256.416"/>
</g>
<!-- number/less&#45;than -->
<g id="node18" class="node"><title>number/less&#45;than</title>
<ellipse fill="none" stroke="#cfffac" cx="769.386" cy="-234" rx="81.4863" ry="18"/>
<text text-anchor="middle" x="769.386" y="-230.3" font-family="Arial" font-size="14.00" fill="#cfffac">number/less&#45;than</text>
</g>
<!-- number/index&#45;&gt;number/less&#45;than -->
<g id="edge20" class="edge"><title>number/index&#45;&gt;number/less&#45;than</title>
<path fill="none" stroke="#757575" d="M758.094,-287.697C759.747,-279.983 761.734,-270.712 763.577,-262.112"/>
<polygon fill="#757575" stroke="#757575" points="767.048,-262.616 765.721,-252.104 760.203,-261.149 767.048,-262.616"/>
</g>
<!-- ../node_modules/type&#45;check/lib/index -->
<g id="node19" class="node"><title>../node_modules/type&#45;check/lib/index</title>
<ellipse fill="none" stroke="#cfffac" cx="1237.39" cy="-234" rx="163.271" ry="18"/>
<text text-anchor="middle" x="1237.39" y="-230.3" font-family="Arial" font-size="14.00" fill="#cfffac">../node_modules/type&#45;check/lib/index</text>
</g>
<!-- type&#45;&gt;../node_modules/type&#45;check/lib/index -->
<g id="edge21" class="edge"><title>type&#45;&gt;../node_modules/type&#45;check/lib/index</title>
<path fill="none" stroke="#757575" d="M1211.44,-288.411C1215.35,-280.369 1220.14,-270.515 1224.53,-261.47"/>
<polygon fill="#757575" stroke="#757575" points="1227.69,-262.971 1228.91,-252.447 1221.39,-259.913 1227.69,-262.971"/>
</g>
<!-- ../node_modules/json&#45;stringify&#45;safe/stringify -->
<g id="node16" class="node"><title>../node_modules/json&#45;stringify&#45;safe/stringify</title>
<ellipse fill="none" stroke="#cfffac" cx="512.386" cy="-18" rx="189.267" ry="18"/>
<text text-anchor="middle" x="512.386" y="-14.3" font-family="Arial" font-size="14.00" fill="#cfffac">../node_modules/json&#45;stringify&#45;safe/stringify</text>
</g>
<!-- lib/stringify&#45;&gt;../node_modules/json&#45;stringify&#45;safe/stringify -->
<g id="edge17" class="edge"><title>lib/stringify&#45;&gt;../node_modules/json&#45;stringify&#45;safe/stringify</title>
<path fill="none" stroke="#757575" d="M512.386,-71.6966C512.386,-63.9827 512.386,-54.7125 512.386,-46.1124"/>
<polygon fill="#757575" stroke="#757575" points="515.886,-46.1043 512.386,-36.1043 508.886,-46.1044 515.886,-46.1043"/>
</g>
</g>
</svg>
